<?xml version="1.0" encoding="UTF-8"?>
<svg xmlns="http://www.w3.org/2000/svg" width="920" height="420" viewBox="0 0 920 420">
<rect x="0" y="0" width="920" height="420" fill="white" />
<text x="460.0" y="27.5" text-anchor="middle" font-family="ui-sans-serif, system-ui, -apple-system" font-size="16" fill="#111827">Figure 2 — PT price curve flattens as expiry approaches (smaller T)</text>
<line x1="70" y1="355.00" x2="890" y2="355.00" stroke="#E5E7EB" stroke-width="1" />
<line x1="70" y1="280.00" x2="890" y2="280.00" stroke="#E5E7EB" stroke-width="1" />
<line x1="70" y1="205.00" x2="890" y2="205.00" stroke="#E5E7EB" stroke-width="1" />
<line x1="70" y1="130.00" x2="890" y2="130.00" stroke="#E5E7EB" stroke-width="1" />
<line x1="70" y1="55.00" x2="890" y2="55.00" stroke="#E5E7EB" stroke-width="1" />
<line x1="329.83" y1="55" x2="329.83" y2="355" stroke="#9CA3AF" stroke-width="1.5" stroke-dasharray="4 4" />
<text x="335.83" y="71" text-anchor="start" font-family="ui-sans-serif, system-ui, -apple-system" font-size="12" fill="#6B7280">current p0</text>
<line x1="70" y1="355" x2="890" y2="355" stroke="#111827" stroke-width="1.5" />
<line x1="70" y1="55" x2="70" y2="355" stroke="#111827" stroke-width="1.5" />
<line x1="70.00" y1="355" x2="70.00" y2="361" stroke="#111827" stroke-width="1" />
<text x="70.00" y="377" text-anchor="middle" font-family="ui-sans-serif, system-ui, -apple-system" font-size="12" fill="#374151">0.052</text>
<line x1="234.00" y1="355" x2="234.00" y2="361" stroke="#111827" stroke-width="1" />
<text x="234.00" y="377" text-anchor="middle" font-family="ui-sans-serif, system-ui, -apple-system" font-size="12" fill="#374151">0.234</text>
<line x1="398.00" y1="355" x2="398.00" y2="361" stroke="#111827" stroke-width="1" />
<text x="398.00" y="377" text-anchor="middle" font-family="ui-sans-serif, system-ui, -apple-system" font-size="12" fill="#374151">0.415</text>
<line x1="562.00" y1="355" x2="562.00" y2="361" stroke="#111827" stroke-width="1" />
<text x="562.00" y="377" text-anchor="middle" font-family="ui-sans-serif, system-ui, -apple-system" font-size="12" fill="#374151">0.597</text>
<line x1="726.00" y1="355" x2="726.00" y2="361" stroke="#111827" stroke-width="1" />
<text x="726.00" y="377" text-anchor="middle" font-family="ui-sans-serif, system-ui, -apple-system" font-size="12" fill="#374151">0.778</text>
<line x1="890.00" y1="355" x2="890.00" y2="361" stroke="#111827" stroke-width="1" />
<text x="890.00" y="377" text-anchor="middle" font-family="ui-sans-serif, system-ui, -apple-system" font-size="12" fill="#374151">0.960</text>
<line x1="64" y1="355.00" x2="70" y2="355.00" stroke="#111827" stroke-width="1" />
<text x="60" y="359.00" text-anchor="end" font-family="ui-sans-serif, system-ui, -apple-system" font-size="12" fill="#374151">0.7553</text>
<line x1="64" y1="280.00" x2="70" y2="280.00" stroke="#111827" stroke-width="1" />
<text x="60" y="284.00" text-anchor="end" font-family="ui-sans-serif, system-ui, -apple-system" font-size="12" fill="#374151">0.8220</text>
<line x1="64" y1="205.00" x2="70" y2="205.00" stroke="#111827" stroke-width="1" />
<text x="60" y="209.00" text-anchor="end" font-family="ui-sans-serif, system-ui, -apple-system" font-size="12" fill="#374151">0.8886</text>
<line x1="64" y1="130.00" x2="70" y2="130.00" stroke="#111827" stroke-width="1" />
<text x="60" y="134.00" text-anchor="end" font-family="ui-sans-serif, system-ui, -apple-system" font-size="12" fill="#374151">0.9553</text>
<line x1="64" y1="55.00" x2="70" y2="55.00" stroke="#111827" stroke-width="1" />
<text x="60" y="59.00" text-anchor="end" font-family="ui-sans-serif, system-ui, -apple-system" font-size="12" fill="#374151">1.0219</text>
<text x="460.0" y="410" text-anchor="middle" font-family="ui-sans-serif, system-ui, -apple-system" font-size="13" fill="#111827">p = PT / (PT + asset)</text>
<text x="14" y="210.0" text-anchor="middle" font-family="ui-sans-serif, system-ui, -apple-system" font-size="13" fill="#111827" transform="rotate(-90, 14, 210.0)">PT_price_asset</text>
<polyline fill="none" stroke="#7C3AED" stroke-width="2.0" stroke-linejoin="round" stroke-linecap="round" points="70.00,86.74 72.06,89.05 74.11,91.26 76.17,93.38 78.22,95.42 80.28,97.38 82.33,99.26 84.39,101.09 86.44,102.85 88.50,104.55 90.55,106.20 92.61,107.80 94.66,109.35 96.72,110.86 98.77,112.33 100.83,113.75 102.88,115.14 104.94,116.50 106.99,117.82 109.05,119.10 111.10,120.36 113.16,121.59 115.21,122.79 117.27,123.97 119.32,125.12 121.38,126.25 123.43,127.35 125.49,128.44 127.54,129.50 129.60,130.54 131.65,131.56 133.71,132.57 135.76,133.55 137.82,134.52 139.87,135.48 141.93,136.41 143.98,137.33 146.04,138.24 148.10,139.13 150.15,140.01 152.21,140.88 154.26,141.73 156.32,142.57 158.37,143.40 160.43,144.22 162.48,145.03 164.54,145.82 166.59,146.61 168.65,147.38 170.70,148.14 172.76,148.90 174.81,149.65 176.87,150.38 178.92,151.11 180.98,151.83 183.03,152.54 185.09,153.24 187.14,153.94 189.20,154.63 191.25,155.31 193.31,155.98 195.36,156.64 197.42,157.30 199.47,157.96 201.53,158.60 203.58,159.24 205.64,159.87 207.69,160.50 209.75,161.12 211.80,161.74 213.86,162.35 215.91,162.95 217.97,163.55 220.03,164.14 222.08,164.73 224.14,165.31 226.19,165.89 228.25,166.47 230.30,167.04 232.36,167.60 234.41,168.16 236.47,168.72 238.52,169.27 240.58,169.82 242.63,170.36 244.69,170.90 246.74,171.43 248.80,171.96 250.85,172.49 252.91,173.02 254.96,173.54 257.02,174.05 259.07,174.57 261.13,175.08 263.18,175.58 265.24,176.09 267.29,176.59 269.35,177.08 271.40,177.58 273.46,178.07 275.51,178.56 277.57,179.04 279.62,179.53 281.68,180.00 283.73,180.48 285.79,180.96 287.84,181.43 289.90,181.90 291.95,182.36 294.01,182.83 296.07,183.29 298.12,183.75 300.18,184.21 302.23,184.66 304.29,185.11 306.34,185.56 308.40,186.01 310.45,186.46 312.51,186.90 314.56,187.34 316.62,187.78 318.67,188.22 320.73,188.66 322.78,189.09 324.84,189.52 326.89,189.95 328.95,190.38 331.00,190.81 333.06,191.23 335.11,191.65 337.17,192.08 339.22,192.50 341.28,192.91 343.33,193.33 345.39,193.75 347.44,194.16 349.50,194.57 351.55,194.98 353.61,195.39 355.66,195.80 357.72,196.21 359.77,196.61 361.83,197.02 363.88,197.42 365.94,197.82 367.99,198.22 370.05,198.62 372.11,199.02 374.16,199.41 376.22,199.81 378.27,200.20 380.33,200.60 382.38,200.99 384.44,201.38 386.49,201.77 388.55,202.16 390.60,202.55 392.66,202.93 394.71,203.32 396.77,203.70 398.82,204.09 400.88,204.47 402.93,204.85 404.99,205.23 407.04,205.62 409.10,205.99 411.15,206.37 413.21,206.75 415.26,207.13 417.32,207.51 419.37,207.88 421.43,208.26 423.48,208.63 425.54,209.01 427.59,209.38 429.65,209.75 431.70,210.12 433.76,210.50 435.81,210.87 437.87,211.24 439.92,211.61 441.98,211.97 444.04,212.34 446.09,212.71 448.15,213.08 450.20,213.45 452.26,213.81 454.31,214.18 456.37,214.55 458.42,214.91 460.48,215.28 462.53,215.64 464.59,216.00 466.64,216.37 468.70,216.73 470.75,217.10 472.81,217.46 474.86,217.82 476.92,218.18 478.97,218.55 481.03,218.91 483.08,219.27 485.14,219.63 487.19,219.99 489.25,220.35 491.30,220.72 493.36,221.08 495.41,221.44 497.47,221.80 499.52,222.16 501.58,222.52 503.63,222.88 505.69,223.24 507.74,223.60 509.80,223.96 511.85,224.32 513.91,224.68 515.96,225.04 518.02,225.40 520.08,225.76 522.13,226.12 524.19,226.48 526.24,226.85 528.30,227.21 530.35,227.57 532.41,227.93 534.46,228.29 536.52,228.65 538.57,229.01 540.63,229.37 542.68,229.74 544.74,230.10 546.79,230.46 548.85,230.82 550.90,231.19 552.96,231.55 555.01,231.91 557.07,232.28 559.12,232.64 561.18,233.01 563.23,233.37 565.29,233.74 567.34,234.10 569.40,234.47 571.45,234.84 573.51,235.21 575.56,235.57 577.62,235.94 579.67,236.31 581.73,236.68 583.78,237.05 585.84,237.42 587.89,237.79 589.95,238.16 592.01,238.54 594.06,238.91 596.12,239.28 598.17,239.66 600.23,240.03 602.28,240.41 604.34,240.79 606.39,241.16 608.45,241.54 610.50,241.92 612.56,242.30 614.61,242.68 616.67,243.06 618.72,243.45 620.78,243.83 622.83,244.21 624.89,244.60 626.94,244.99 629.00,245.37 631.05,245.76 633.11,246.15 635.16,246.54 637.22,246.93 639.27,247.33 641.33,247.72 643.38,248.12 645.44,248.51 647.49,248.91 649.55,249.31 651.60,249.71 653.66,250.11 655.71,250.52 657.77,250.92 659.82,251.33 661.88,251.74 663.93,252.14 665.99,252.56 668.05,252.97 670.10,253.38 672.16,253.80 674.21,254.21 676.27,254.63 678.32,255.05 680.38,255.48 682.43,255.90 684.49,256.33 686.54,256.76 688.60,257.19 690.65,257.62 692.71,258.05 694.76,258.49 696.82,258.93 698.87,259.37 700.93,259.81 702.98,260.26 705.04,260.70 707.09,261.15 709.15,261.61 711.20,262.06 713.26,262.52 715.31,262.98 717.37,263.44 719.42,263.91 721.48,264.37 723.53,264.85 725.59,265.32 727.64,265.80 729.70,266.28 731.75,266.76 733.81,267.25 735.86,267.74 737.92,268.23 739.97,268.73 742.03,269.23 744.09,269.73 746.14,270.24 748.20,270.75 750.25,271.26 752.31,271.78 754.36,272.31 756.42,272.83 758.47,273.37 760.53,273.90 762.58,274.44 764.64,274.99 766.69,275.54 768.75,276.09 770.80,276.65 772.86,277.22 774.91,277.79 776.97,278.37 779.02,278.95 781.08,279.54 783.13,280.13 785.19,280.73 787.24,281.34 789.30,281.95 791.35,282.57 793.41,283.20 795.46,283.83 797.52,284.48 799.57,285.12 801.63,285.78 803.68,286.45 805.74,287.12 807.79,287.80 809.85,288.50 811.90,289.20 813.96,289.91 816.02,290.63 818.07,291.36 820.13,292.10 822.18,292.86 824.24,293.62 826.29,294.40 828.35,295.19 830.40,296.00 832.46,296.82 834.51,297.65 836.57,298.50 838.62,299.36 840.68,300.24 842.73,301.14 844.79,302.06 846.84,302.99 848.90,303.95 850.95,304.92 853.01,305.92 855.06,306.94 857.12,307.99 859.17,309.07 861.23,310.17 863.28,311.30 865.34,312.46 867.39,313.66 869.45,314.90 871.50,316.17 873.56,317.48 875.61,318.84 877.67,320.25 879.72,321.71 881.78,323.23 883.83,324.81 885.89,326.46 887.94,328.19 890.00,330.00" />
<polyline fill="none" stroke="#2563EB" stroke-width="2.0" stroke-linejoin="round" stroke-linecap="round" points="70.00,81.64 72.06,82.81 74.11,83.93 76.17,85.00 78.22,86.04 80.28,87.03 82.33,88.00 84.39,88.93 86.44,89.83 88.50,90.70 90.55,91.55 92.61,92.37 94.66,93.17 96.72,93.94 98.77,94.70 100.83,95.44 102.88,96.16 104.94,96.86 106.99,97.54 109.05,98.21 111.10,98.86 113.16,99.50 115.21,100.13 117.27,100.74 119.32,101.34 121.38,101.93 123.43,102.51 125.49,103.08 127.54,103.63 129.60,104.18 131.65,104.72 133.71,105.25 135.76,105.76 137.82,106.27 139.87,106.78 141.93,107.27 143.98,107.76 146.04,108.24 148.10,108.71 150.15,109.17 152.21,109.63 154.26,110.08 156.32,110.53 158.37,110.97 160.43,111.41 162.48,111.83 164.54,112.26 166.59,112.67 168.65,113.09 170.70,113.49 172.76,113.90 174.81,114.30 176.87,114.69 178.92,115.08 180.98,115.46 183.03,115.84 185.09,116.22 187.14,116.59 189.20,116.96 191.25,117.33 193.31,117.69 195.36,118.05 197.42,118.40 199.47,118.75 201.53,119.10 203.58,119.44 205.64,119.78 207.69,120.12 209.75,120.46 211.80,120.79 213.86,121.12 215.91,121.44 217.97,121.77 220.03,122.09 222.08,122.41 224.14,122.72 226.19,123.04 228.25,123.35 230.30,123.66 232.36,123.96 234.41,124.27 236.47,124.57 238.52,124.87 240.58,125.17 242.63,125.46 244.69,125.76 246.74,126.05 248.80,126.34 250.85,126.63 252.91,126.91 254.96,127.20 257.02,127.48 259.07,127.76 261.13,128.04 263.18,128.31 265.24,128.59 267.29,128.86 269.35,129.14 271.40,129.41 273.46,129.68 275.51,129.94 277.57,130.21 279.62,130.47 281.68,130.74 283.73,131.00 285.79,131.26 287.84,131.52 289.90,131.78 291.95,132.03 294.01,132.29 296.07,132.54 298.12,132.80 300.18,133.05 302.23,133.30 304.29,133.55 306.34,133.80 308.40,134.05 310.45,134.29 312.51,134.54 314.56,134.78 316.62,135.02 318.67,135.27 320.73,135.51 322.78,135.75 324.84,135.99 326.89,136.23 328.95,136.46 331.00,136.70 333.06,136.94 335.11,137.17 337.17,137.41 339.22,137.64 341.28,137.87 343.33,138.10 345.39,138.33 347.44,138.56 349.50,138.79 351.55,139.02 353.61,139.25 355.66,139.48 357.72,139.70 359.77,139.93 361.83,140.16 363.88,140.38 365.94,140.60 367.99,140.83 370.05,141.05 372.11,141.27 374.16,141.50 376.22,141.72 378.27,141.94 380.33,142.16 382.38,142.38 384.44,142.60 386.49,142.81 388.55,143.03 390.60,143.25 392.66,143.47 394.71,143.68 396.77,143.90 398.82,144.11 400.88,144.33 402.93,144.54 404.99,144.76 407.04,144.97 409.10,145.19 411.15,145.40 413.21,145.61 415.26,145.83 417.32,146.04 419.37,146.25 421.43,146.46 423.48,146.67 425.54,146.88 427.59,147.09 429.65,147.30 431.70,147.52 433.76,147.72 435.81,147.93 437.87,148.14 439.92,148.35 441.98,148.56 444.04,148.77 446.09,148.98 448.15,149.19 450.20,149.40 452.26,149.60 454.31,149.81 456.37,150.02 458.42,150.23 460.48,150.43 462.53,150.64 464.59,150.85 466.64,151.05 468.70,151.26 470.75,151.47 472.81,151.67 474.86,151.88 476.92,152.09 478.97,152.29 481.03,152.50 483.08,152.70 485.14,152.91 487.19,153.12 489.25,153.32 491.30,153.53 493.36,153.73 495.41,153.94 497.47,154.15 499.52,154.35 501.58,154.56 503.63,154.77 505.69,154.97 507.74,155.18 509.80,155.38 511.85,155.59 513.91,155.80 515.96,156.00 518.02,156.21 520.08,156.42 522.13,156.62 524.19,156.83 526.24,157.04 528.30,157.24 530.35,157.45 532.41,157.66 534.46,157.87 536.52,158.07 538.57,158.28 540.63,158.49 542.68,158.70 544.74,158.91 546.79,159.12 548.85,159.32 550.90,159.53 552.96,159.74 555.01,159.95 557.07,160.16 559.12,160.37 561.18,160.58 563.23,160.79 565.29,161.01 567.34,161.22 569.40,161.43 571.45,161.64 573.51,161.85 575.56,162.07 577.62,162.28 579.67,162.49 581.73,162.71 583.78,162.92 585.84,163.14 587.89,163.35 589.95,163.57 592.01,163.78 594.06,164.00 596.12,164.22 598.17,164.43 600.23,164.65 602.28,164.87 604.34,165.09 606.39,165.31 608.45,165.53 610.50,165.75 612.56,165.97 614.61,166.19 616.67,166.42 618.72,166.64 620.78,166.86 622.83,167.09 624.89,167.31 626.94,167.54 629.00,167.76 631.05,167.99 633.11,168.22 635.16,168.45 637.22,168.68 639.27,168.91 641.33,169.14 643.38,169.37 645.44,169.60 647.49,169.84 649.55,170.07 651.60,170.30 653.66,170.54 655.71,170.78 657.77,171.01 659.82,171.25 661.88,171.49 663.93,171.73 665.99,171.97 668.05,172.22 670.10,172.46 672.16,172.71 674.21,172.95 676.27,173.20 678.32,173.45 680.38,173.70 682.43,173.95 684.49,174.20 686.54,174.45 688.60,174.70 690.65,174.96 692.71,175.22 694.76,175.47 696.82,175.73 698.87,176.00 700.93,176.26 702.98,176.52 705.04,176.79 707.09,177.05 709.15,177.32 711.20,177.59 713.26,177.86 715.31,178.14 717.37,178.41 719.42,178.69 721.48,178.97 723.53,179.25 725.59,179.53 727.64,179.81 729.70,180.10 731.75,180.39 733.81,180.68 735.86,180.97 737.92,181.26 739.97,181.56 742.03,181.86 744.09,182.16 746.14,182.46 748.20,182.77 750.25,183.08 752.31,183.39 754.36,183.70 756.42,184.02 758.47,184.34 760.53,184.66 762.58,184.99 764.64,185.31 766.69,185.65 768.75,185.98 770.80,186.32 772.86,186.66 774.91,187.00 776.97,187.35 779.02,187.70 781.08,188.05 783.13,188.41 785.19,188.78 787.24,189.14 789.30,189.51 791.35,189.89 793.41,190.27 795.46,190.65 797.52,191.04 799.57,191.44 801.63,191.84 803.68,192.24 805.74,192.65 807.79,193.07 809.85,193.49 811.90,193.91 813.96,194.35 816.02,194.79 818.07,195.24 820.13,195.69 822.18,196.15 824.24,196.62 826.29,197.10 828.35,197.58 830.40,198.07 832.46,198.58 834.51,199.09 836.57,199.61 838.62,200.14 840.68,200.68 842.73,201.24 844.79,201.80 846.84,202.38 848.90,202.97 850.95,203.57 853.01,204.19 855.06,204.83 857.12,205.48 859.17,206.14 861.23,206.83 863.28,207.53 865.34,208.26 867.39,209.01 869.45,209.78 871.50,210.57 873.56,211.40 875.61,212.25 877.67,213.13 879.72,214.05 881.78,215.01 883.83,216.01 885.89,217.05 887.94,218.14 890.00,219.29" />
<polyline fill="none" stroke="#059669" stroke-width="2.0" stroke-linejoin="round" stroke-linecap="round" points="70.00,80.00 72.06,80.39 74.11,80.76 76.17,81.13 78.22,81.47 80.28,81.81 82.33,82.13 84.39,82.45 86.44,82.75 88.50,83.04 90.55,83.33 92.61,83.61 94.66,83.88 96.72,84.14 98.77,84.40 100.83,84.65 102.88,84.89 104.94,85.13 106.99,85.37 109.05,85.59 111.10,85.82 113.16,86.03 115.21,86.25 117.27,86.46 119.32,86.66 121.38,86.87 123.43,87.06 125.49,87.26 127.54,87.45 129.60,87.64 131.65,87.82 133.71,88.00 135.76,88.18 137.82,88.36 139.87,88.53 141.93,88.70 143.98,88.87 146.04,89.03 148.10,89.20 150.15,89.36 152.21,89.52 154.26,89.67 156.32,89.83 158.37,89.98 160.43,90.13 162.48,90.28 164.54,90.42 166.59,90.57 168.65,90.71 170.70,90.85 172.76,90.99 174.81,91.13 176.87,91.27 178.92,91.40 180.98,91.54 183.03,91.67 185.09,91.80 187.14,91.93 189.20,92.06 191.25,92.19 193.31,92.31 195.36,92.44 197.42,92.56 199.47,92.68 201.53,92.81 203.58,92.93 205.64,93.05 207.69,93.16 209.75,93.28 211.80,93.40 213.86,93.51 215.91,93.63 217.97,93.74 220.03,93.85 222.08,93.97 224.14,94.08 226.19,94.19 228.25,94.30 230.30,94.40 232.36,94.51 234.41,94.62 236.47,94.73 238.52,94.83 240.58,94.94 242.63,95.04 244.69,95.14 246.74,95.25 248.80,95.35 250.85,95.45 252.91,95.55 254.96,95.65 257.02,95.75 259.07,95.85 261.13,95.95 263.18,96.05 265.24,96.14 267.29,96.24 269.35,96.34 271.40,96.43 273.46,96.53 275.51,96.62 277.57,96.72 279.62,96.81 281.68,96.91 283.73,97.00 285.79,97.09 287.84,97.18 289.90,97.27 291.95,97.37 294.01,97.46 296.07,97.55 298.12,97.64 300.18,97.73 302.23,97.82 304.29,97.90 306.34,97.99 308.40,98.08 310.45,98.17 312.51,98.26 314.56,98.34 316.62,98.43 318.67,98.52 320.73,98.60 322.78,98.69 324.84,98.77 326.89,98.86 328.95,98.94 331.00,99.03 333.06,99.11 335.11,99.20 337.17,99.28 339.22,99.36 341.28,99.45 343.33,99.53 345.39,99.61 347.44,99.69 349.50,99.78 351.55,99.86 353.61,99.94 355.66,100.02 357.72,100.10 359.77,100.18 361.83,100.26 363.88,100.35 365.94,100.43 367.99,100.51 370.05,100.59 372.11,100.67 374.16,100.75 376.22,100.82 378.27,100.90 380.33,100.98 382.38,101.06 384.44,101.14 386.49,101.22 388.55,101.30 390.60,101.38 392.66,101.45 394.71,101.53 396.77,101.61 398.82,101.69 400.88,101.77 402.93,101.84 404.99,101.92 407.04,102.00 409.10,102.08 411.15,102.15 413.21,102.23 415.26,102.31 417.32,102.38 419.37,102.46 421.43,102.54 423.48,102.61 425.54,102.69 427.59,102.76 429.65,102.84 431.70,102.92 433.76,102.99 435.81,103.07 437.87,103.14 439.92,103.22 441.98,103.30 444.04,103.37 446.09,103.45 448.15,103.52 450.20,103.60 452.26,103.67 454.31,103.75 456.37,103.82 458.42,103.90 460.48,103.98 462.53,104.05 464.59,104.13 466.64,104.20 468.70,104.28 470.75,104.35 472.81,104.43 474.86,104.50 476.92,104.58 478.97,104.65 481.03,104.73 483.08,104.80 485.14,104.88 487.19,104.95 489.25,105.03 491.30,105.10 493.36,105.18 495.41,105.25 497.47,105.33 499.52,105.40 501.58,105.48 503.63,105.55 505.69,105.63 507.74,105.70 509.80,105.78 511.85,105.86 513.91,105.93 515.96,106.01 518.02,106.08 520.08,106.16 522.13,106.23 524.19,106.31 526.24,106.38 528.30,106.46 530.35,106.54 532.41,106.61 534.46,106.69 536.52,106.76 538.57,106.84 540.63,106.92 542.68,106.99 544.74,107.07 546.79,107.15 548.85,107.22 550.90,107.30 552.96,107.38 555.01,107.45 557.07,107.53 559.12,107.61 561.18,107.69 563.23,107.76 565.29,107.84 567.34,107.92 569.40,108.00 571.45,108.08 573.51,108.15 575.56,108.23 577.62,108.31 579.67,108.39 581.73,108.47 583.78,108.55 585.84,108.63 587.89,108.71 589.95,108.79 592.01,108.87 594.06,108.95 596.12,109.03 598.17,109.11 600.23,109.19 602.28,109.27 604.34,109.35 606.39,109.43 608.45,109.51 610.50,109.59 612.56,109.68 614.61,109.76 616.67,109.84 618.72,109.92 620.78,110.01 622.83,110.09 624.89,110.17 626.94,110.26 629.00,110.34 631.05,110.43 633.11,110.51 635.16,110.59 637.22,110.68 639.27,110.77 641.33,110.85 643.38,110.94 645.44,111.02 647.49,111.11 649.55,111.20 651.60,111.29 653.66,111.37 655.71,111.46 657.77,111.55 659.82,111.64 661.88,111.73 663.93,111.82 665.99,111.91 668.05,112.00 670.10,112.09 672.16,112.18 674.21,112.27 676.27,112.37 678.32,112.46 680.38,112.55 682.43,112.65 684.49,112.74 686.54,112.83 688.60,112.93 690.65,113.02 692.71,113.12 694.76,113.22 696.82,113.31 698.87,113.41 700.93,113.51 702.98,113.61 705.04,113.71 707.09,113.81 709.15,113.91 711.20,114.01 713.26,114.11 715.31,114.22 717.37,114.32 719.42,114.42 721.48,114.53 723.53,114.63 725.59,114.74 727.64,114.85 729.70,114.96 731.75,115.06 733.81,115.17 735.86,115.28 737.92,115.40 739.97,115.51 742.03,115.62 744.09,115.73 746.14,115.85 748.20,115.97 750.25,116.08 752.31,116.20 754.36,116.32 756.42,116.44 758.47,116.56 760.53,116.68 762.58,116.80 764.64,116.93 766.69,117.05 768.75,117.18 770.80,117.31 772.86,117.44 774.91,117.57 776.97,117.70 779.02,117.84 781.08,117.97 783.13,118.11 785.19,118.25 787.24,118.39 789.30,118.53 791.35,118.67 793.41,118.82 795.46,118.96 797.52,119.11 799.57,119.26 801.63,119.41 803.68,119.57 805.74,119.73 807.79,119.89 809.85,120.05 811.90,120.21 813.96,120.38 816.02,120.55 818.07,120.72 820.13,120.89 822.18,121.07 824.24,121.25 826.29,121.43 828.35,121.62 830.40,121.81 832.46,122.01 834.51,122.20 836.57,122.40 838.62,122.61 840.68,122.82 842.73,123.03 844.79,123.25 846.84,123.48 848.90,123.71 850.95,123.94 853.01,124.18 855.06,124.43 857.12,124.68 859.17,124.94 861.23,125.21 863.28,125.48 865.34,125.77 867.39,126.06 869.45,126.36 871.50,126.67 873.56,126.99 875.61,127.33 877.67,127.68 879.72,128.04 881.78,128.42 883.83,128.81 885.89,129.22 887.94,129.65 890.00,130.11" />
<line x1="750" y1="63.00" x2="770" y2="63.00" stroke="#7C3AED" stroke-width="2.0"  />
<text x="776" y="67.00" text-anchor="start" font-family="ui-sans-serif, system-ui, -apple-system" font-size="12" fill="#111827">T=180d</text>
<line x1="750" y1="81.00" x2="770" y2="81.00" stroke="#2563EB" stroke-width="2.0"  />
<text x="776" y="85.00" text-anchor="start" font-family="ui-sans-serif, system-ui, -apple-system" font-size="12" fill="#111827">T=90d</text>
<line x1="750" y1="99.00" x2="770" y2="99.00" stroke="#059669" stroke-width="2.0"  />
<text x="776" y="103.00" text-anchor="start" font-family="ui-sans-serif, system-ui, -apple-system" font-size="12" fill="#111827">T=30d</text>
</svg>
