<?xml version="1.0" encoding="UTF-8"?>
<svg xmlns="http://www.w3.org/2000/svg" width="920" height="420" viewBox="0 0 920 420">
<rect x="0" y="0" width="920" height="420" fill="white" />
<text x="460.0" y="27.5" text-anchor="middle" font-family="ui-sans-serif, system-ui, -apple-system" font-size="16" fill="#111827">Figure 4 — Round-trip loss (fee=0) shrinks with splitting</text>
<line x1="70" y1="355.00" x2="890" y2="355.00" stroke="#E5E7EB" stroke-width="1" />
<line x1="70" y1="295.00" x2="890" y2="295.00" stroke="#E5E7EB" stroke-width="1" />
<line x1="70" y1="235.00" x2="890" y2="235.00" stroke="#E5E7EB" stroke-width="1" />
<line x1="70" y1="175.00" x2="890" y2="175.00" stroke="#E5E7EB" stroke-width="1" />
<line x1="70" y1="115.00" x2="890" y2="115.00" stroke="#E5E7EB" stroke-width="1" />
<line x1="70" y1="55.00" x2="890" y2="55.00" stroke="#E5E7EB" stroke-width="1" />
<line x1="232.69" y1="55" x2="232.69" y2="355" stroke="#9CA3AF" stroke-width="1.5" stroke-dasharray="4 4" />
<text x="238.69" y="71" text-anchor="start" font-family="ui-sans-serif, system-ui, -apple-system" font-size="12" fill="#6B7280">10%</text>
<line x1="70" y1="355" x2="890" y2="355" stroke="#111827" stroke-width="1.5" />
<line x1="70" y1="55" x2="70" y2="355" stroke="#111827" stroke-width="1.5" />
<line x1="70.00" y1="355" x2="70.00" y2="361" stroke="#111827" stroke-width="1" />
<text x="70.00" y="377" text-anchor="middle" font-family="ui-sans-serif, system-ui, -apple-system" font-size="12" fill="#374151">0.100</text>
<line x1="234.00" y1="355" x2="234.00" y2="361" stroke="#111827" stroke-width="1" />
<text x="234.00" y="377" text-anchor="middle" font-family="ui-sans-serif, system-ui, -apple-system" font-size="12" fill="#374151">10.1</text>
<line x1="398.00" y1="355" x2="398.00" y2="361" stroke="#111827" stroke-width="1" />
<text x="398.00" y="377" text-anchor="middle" font-family="ui-sans-serif, system-ui, -apple-system" font-size="12" fill="#374151">20.1</text>
<line x1="562.00" y1="355" x2="562.00" y2="361" stroke="#111827" stroke-width="1" />
<text x="562.00" y="377" text-anchor="middle" font-family="ui-sans-serif, system-ui, -apple-system" font-size="12" fill="#374151">30.0</text>
<line x1="726.00" y1="355" x2="726.00" y2="361" stroke="#111827" stroke-width="1" />
<text x="726.00" y="377" text-anchor="middle" font-family="ui-sans-serif, system-ui, -apple-system" font-size="12" fill="#374151">40.0</text>
<line x1="890.00" y1="355" x2="890.00" y2="361" stroke="#111827" stroke-width="1" />
<text x="890.00" y="377" text-anchor="middle" font-family="ui-sans-serif, system-ui, -apple-system" font-size="12" fill="#374151">50.0</text>
<line x1="64" y1="355.00" x2="70" y2="355.00" stroke="#111827" stroke-width="1" />
<text x="60" y="359.00" text-anchor="end" font-family="ui-sans-serif, system-ui, -apple-system" font-size="12" fill="#374151">0</text>
<line x1="64" y1="295.00" x2="70" y2="295.00" stroke="#111827" stroke-width="1" />
<text x="60" y="299.00" text-anchor="end" font-family="ui-sans-serif, system-ui, -apple-system" font-size="12" fill="#374151">47</text>
<line x1="64" y1="235.00" x2="70" y2="235.00" stroke="#111827" stroke-width="1" />
<text x="60" y="239.00" text-anchor="end" font-family="ui-sans-serif, system-ui, -apple-system" font-size="12" fill="#374151">95</text>
<line x1="64" y1="175.00" x2="70" y2="175.00" stroke="#111827" stroke-width="1" />
<text x="60" y="179.00" text-anchor="end" font-family="ui-sans-serif, system-ui, -apple-system" font-size="12" fill="#374151">142</text>
<line x1="64" y1="115.00" x2="70" y2="115.00" stroke="#111827" stroke-width="1" />
<text x="60" y="119.00" text-anchor="end" font-family="ui-sans-serif, system-ui, -apple-system" font-size="12" fill="#374151">190</text>
<line x1="64" y1="55.00" x2="70" y2="55.00" stroke="#111827" stroke-width="1" />
<text x="60" y="59.00" text-anchor="end" font-family="ui-sans-serif, system-ui, -apple-system" font-size="12" fill="#374151">237</text>
<text x="460.0" y="410" text-anchor="middle" font-family="ui-sans-serif, system-ui, -apple-system" font-size="13" fill="#111827">Trade size (as % of pool totalPt), buy x PT then sell x PT back</text>
<text x="14" y="210.0" text-anchor="middle" font-family="ui-sans-serif, system-ui, -apple-system" font-size="13" fill="#111827" transform="rotate(-90, 14, 210.0)">Round-trip loss (bps of spot notional)</text>
<polyline fill="none" stroke="#111827" stroke-width="2.0" stroke-linejoin="round" stroke-linecap="round" points="70.00,354.55 73.74,353.52 77.49,352.49 81.23,351.46 84.98,350.43 88.72,349.40 92.47,348.36 96.21,347.33 99.95,346.29 103.70,345.25 107.44,344.21 111.19,343.17 114.93,342.13 118.68,341.09 122.42,340.04 126.16,339.00 129.91,337.95 133.65,336.90 137.40,335.85 141.14,334.80 144.89,333.75 148.63,332.69 152.37,331.64 156.12,330.58 159.86,329.52 163.61,328.46 167.35,327.40 171.10,326.34 174.84,325.27 178.58,324.21 182.33,323.14 186.07,322.07 189.82,321.00 193.56,319.93 197.31,318.86 201.05,317.78 204.79,316.70 208.54,315.63 212.28,314.55 216.03,313.47 219.77,312.38 223.52,311.30 227.26,310.21 231.00,309.12 234.75,308.03 238.49,306.94 242.24,305.85 245.98,304.76 249.73,303.66 253.47,302.56 257.21,301.46 260.96,300.36 264.70,299.26 268.45,298.16 272.19,297.05 275.94,295.94 279.68,294.83 283.42,293.72 287.17,292.61 290.91,291.49 294.66,290.37 298.40,289.25 302.15,288.13 305.89,287.01 309.63,285.89 313.38,284.76 317.12,283.63 320.87,282.50 324.61,281.37 328.36,280.23 332.10,279.10 335.84,277.96 339.59,276.82 343.33,275.68 347.08,274.53 350.82,273.39 354.57,272.24 358.31,271.09 362.05,269.94 365.80,268.78 369.54,267.63 373.29,266.47 377.03,265.31 380.78,264.14 384.52,262.98 388.26,261.81 392.01,260.64 395.75,259.47 399.50,258.30 403.24,257.12 406.99,255.94 410.73,254.76 414.47,253.58 418.22,252.40 421.96,251.21 425.71,250.02 429.45,248.83 433.20,247.63 436.94,246.44 440.68,245.24 444.43,244.04 448.17,242.83 451.92,241.63 455.66,240.42 459.41,239.21 463.15,237.99 466.89,236.78 470.64,235.56 474.38,234.34 478.13,233.11 481.87,231.88 485.62,230.66 489.36,229.42 493.11,228.19 496.85,226.95 500.59,225.71 504.34,224.47 508.08,223.23 511.83,221.98 515.57,220.73 519.32,219.47 523.06,218.22 526.80,216.96 530.55,215.70 534.29,214.43 538.04,213.16 541.78,211.89 545.53,210.62 549.27,209.34 553.01,208.06 556.76,206.78 560.50,205.50 564.25,204.21 567.99,202.92 571.74,201.62 575.48,200.33 579.22,199.02 582.97,197.72 586.71,196.41 590.46,195.10 594.20,193.79 597.95,192.47 601.69,191.15 605.43,189.83 609.18,188.50 612.92,187.17 616.67,185.84 620.41,184.50 624.16,183.16 627.90,181.82 631.64,180.47 635.39,179.12 639.13,177.77 642.88,176.41 646.62,175.05 650.37,173.68 654.11,172.32 657.85,170.94 661.60,169.57 665.34,168.19 669.09,166.80 672.83,165.42 676.58,164.03 680.32,162.63 684.06,161.23 687.81,159.83 691.55,158.42 695.30,157.01 699.04,155.60 702.79,154.18 706.53,152.76 710.27,151.33 714.02,149.90 717.76,148.46 721.51,147.02 725.25,145.58 729.00,144.13 732.74,142.68 736.48,141.22 740.23,139.76 743.97,138.30 747.72,136.83 751.46,135.35 755.21,133.87 758.95,132.39 762.69,130.90 766.44,129.41 770.18,127.91 773.93,126.41 777.67,124.90 781.42,123.39 785.16,121.87 788.90,120.35 792.65,118.82 796.39,117.29 800.14,115.75 803.88,114.21 807.63,112.66 811.37,111.11 815.11,109.55 818.86,107.99 822.60,106.42 826.35,104.85 830.09,103.27 833.84,101.68 837.58,100.09 841.32,98.50 845.07,96.90 848.81,95.29 852.56,93.68 856.30,92.06 860.05,90.43 863.79,88.80 867.53,87.17 871.28,85.53 875.02,83.88 878.77,82.22 882.51,80.56 886.26,78.90 890.00,77.22" />
<polyline fill="none" stroke="#2563EB" stroke-width="2.0" stroke-linejoin="round" stroke-linecap="round" points="70.00,354.91 73.74,354.70 77.49,354.50 81.23,354.29 84.98,354.09 88.72,353.88 92.47,353.67 96.21,353.47 99.95,353.26 103.70,353.05 107.44,352.84 111.19,352.63 114.93,352.43 118.68,352.22 122.42,352.01 126.16,351.80 129.91,351.59 133.65,351.38 137.40,351.17 141.14,350.96 144.89,350.75 148.63,350.54 152.37,350.33 156.12,350.12 159.86,349.90 163.61,349.69 167.35,349.48 171.10,349.27 174.84,349.05 178.58,348.84 182.33,348.63 186.07,348.41 189.82,348.20 193.56,347.99 197.31,347.77 201.05,347.56 204.79,347.34 208.54,347.13 212.28,346.91 216.03,346.69 219.77,346.48 223.52,346.26 227.26,346.04 231.00,345.82 234.75,345.61 238.49,345.39 242.24,345.17 245.98,344.95 249.73,344.73 253.47,344.51 257.21,344.29 260.96,344.07 264.70,343.85 268.45,343.63 272.19,343.41 275.94,343.19 279.68,342.97 283.42,342.74 287.17,342.52 290.91,342.30 294.66,342.07 298.40,341.85 302.15,341.63 305.89,341.40 309.63,341.18 313.38,340.95 317.12,340.73 320.87,340.50 324.61,340.27 328.36,340.05 332.10,339.82 335.84,339.59 339.59,339.36 343.33,339.14 347.08,338.91 350.82,338.68 354.57,338.45 358.31,338.22 362.05,337.99 365.80,337.76 369.54,337.53 373.29,337.29 377.03,337.06 380.78,336.83 384.52,336.60 388.26,336.36 392.01,336.13 395.75,335.89 399.50,335.66 403.24,335.42 406.99,335.19 410.73,334.95 414.47,334.72 418.22,334.48 421.96,334.24 425.71,334.00 429.45,333.77 433.20,333.53 436.94,333.29 440.68,333.05 444.43,332.81 448.17,332.57 451.92,332.33 455.66,332.08 459.41,331.84 463.15,331.60 466.89,331.35 470.64,331.11 474.38,330.87 478.13,330.62 481.87,330.38 485.62,330.13 489.36,329.88 493.11,329.64 496.85,329.39 500.59,329.14 504.34,328.89 508.08,328.64 511.83,328.40 515.57,328.15 519.32,327.89 523.06,327.64 526.80,327.39 530.55,327.14 534.29,326.89 538.04,326.63 541.78,326.38 545.53,326.12 549.27,325.87 553.01,325.61 556.76,325.36 560.50,325.10 564.25,324.84 567.99,324.58 571.74,324.32 575.48,324.06 579.22,323.80 582.97,323.54 586.71,323.28 590.46,323.02 594.20,322.76 597.95,322.49 601.69,322.23 605.43,321.97 609.18,321.70 612.92,321.43 616.67,321.17 620.41,320.90 624.16,320.63 627.90,320.36 631.64,320.09 635.39,319.82 639.13,319.55 642.88,319.28 646.62,319.01 650.37,318.74 654.11,318.46 657.85,318.19 661.60,317.91 665.34,317.64 669.09,317.36 672.83,317.08 676.58,316.80 680.32,316.52 684.06,316.25 687.81,315.96 691.55,315.68 695.30,315.40 699.04,315.12 702.79,314.83 706.53,314.55 710.27,314.26 714.02,313.98 717.76,313.69 721.51,313.40 725.25,313.11 729.00,312.82 732.74,312.53 736.48,312.24 740.23,311.95 743.97,311.66 747.72,311.36 751.46,311.07 755.21,310.77 758.95,310.48 762.69,310.18 766.44,309.88 770.18,309.58 773.93,309.28 777.67,308.98 781.42,308.67 785.16,308.37 788.90,308.07 792.65,307.76 796.39,307.46 800.14,307.15 803.88,306.84 807.63,306.53 811.37,306.22 815.11,305.91 818.86,305.59 822.60,305.28 826.35,304.97 830.09,304.65 833.84,304.33 837.58,304.02 841.32,303.70 845.07,303.38 848.81,303.05 852.56,302.73 856.30,302.41 860.05,302.08 863.79,301.76 867.53,301.43 871.28,301.10 875.02,300.77 878.77,300.44 882.51,300.11 886.26,299.77 890.00,299.44" />
<polyline fill="none" stroke="#DC2626" stroke-width="2.0" stroke-linejoin="round" stroke-linecap="round" points="70.00,354.95 73.74,354.85 77.49,354.75 81.23,354.65 84.98,354.54 88.72,354.44 92.47,354.34 96.21,354.23 99.95,354.13 103.70,354.03 107.44,353.92 111.19,353.82 114.93,353.71 118.68,353.61 122.42,353.50 126.16,353.40 129.91,353.30 133.65,353.19 137.40,353.09 141.14,352.98 144.89,352.87 148.63,352.77 152.37,352.66 156.12,352.56 159.86,352.45 163.61,352.35 167.35,352.24 171.10,352.13 174.84,352.03 178.58,351.92 182.33,351.81 186.07,351.71 189.82,351.60 193.56,351.49 197.31,351.39 201.05,351.28 204.79,351.17 208.54,351.06 212.28,350.95 216.03,350.85 219.77,350.74 223.52,350.63 227.26,350.52 231.00,350.41 234.75,350.30 238.49,350.19 242.24,350.09 245.98,349.98 249.73,349.87 253.47,349.76 257.21,349.65 260.96,349.54 264.70,349.43 268.45,349.32 272.19,349.20 275.94,349.09 279.68,348.98 283.42,348.87 287.17,348.76 290.91,348.65 294.66,348.54 298.40,348.43 302.15,348.31 305.89,348.20 309.63,348.09 313.38,347.98 317.12,347.86 320.87,347.75 324.61,347.64 328.36,347.52 332.10,347.41 335.84,347.30 339.59,347.18 343.33,347.07 347.08,346.95 350.82,346.84 354.57,346.72 358.31,346.61 362.05,346.49 365.80,346.38 369.54,346.26 373.29,346.15 377.03,346.03 380.78,345.91 384.52,345.80 388.26,345.68 392.01,345.56 395.75,345.45 399.50,345.33 403.24,345.21 406.99,345.09 410.73,344.98 414.47,344.86 418.22,344.74 421.96,344.62 425.71,344.50 429.45,344.38 433.20,344.26 436.94,344.14 440.68,344.02 444.43,343.90 448.17,343.78 451.92,343.66 455.66,343.54 459.41,343.42 463.15,343.30 466.89,343.18 470.64,343.06 474.38,342.93 478.13,342.81 481.87,342.69 485.62,342.57 489.36,342.44 493.11,342.32 496.85,342.20 500.59,342.07 504.34,341.95 508.08,341.82 511.83,341.70 515.57,341.57 519.32,341.45 523.06,341.32 526.80,341.20 530.55,341.07 534.29,340.94 538.04,340.82 541.78,340.69 545.53,340.56 549.27,340.43 553.01,340.31 556.76,340.18 560.50,340.05 564.25,339.92 567.99,339.79 571.74,339.66 575.48,339.53 579.22,339.40 582.97,339.27 586.71,339.14 590.46,339.01 594.20,338.88 597.95,338.75 601.69,338.61 605.43,338.48 609.18,338.35 612.92,338.22 616.67,338.08 620.41,337.95 624.16,337.82 627.90,337.68 631.64,337.55 635.39,337.41 639.13,337.28 642.88,337.14 646.62,337.00 650.37,336.87 654.11,336.73 657.85,336.59 661.60,336.46 665.34,336.32 669.09,336.18 672.83,336.04 676.58,335.90 680.32,335.76 684.06,335.62 687.81,335.48 691.55,335.34 695.30,335.20 699.04,335.06 702.79,334.92 706.53,334.77 710.27,334.63 714.02,334.49 717.76,334.34 721.51,334.20 725.25,334.06 729.00,333.91 732.74,333.77 736.48,333.62 740.23,333.47 743.97,333.33 747.72,333.18 751.46,333.03 755.21,332.89 758.95,332.74 762.69,332.59 766.44,332.44 770.18,332.29 773.93,332.14 777.67,331.99 781.42,331.84 785.16,331.68 788.90,331.53 792.65,331.38 796.39,331.23 800.14,331.07 803.88,330.92 807.63,330.76 811.37,330.61 815.11,330.45 818.86,330.30 822.60,330.14 826.35,329.98 830.09,329.82 833.84,329.67 837.58,329.51 841.32,329.35 845.07,329.19 848.81,329.03 852.56,328.86 856.30,328.70 860.05,328.54 863.79,328.38 867.53,328.21 871.28,328.05 875.02,327.88 878.77,327.72 882.51,327.55 886.26,327.39 890.00,327.22" />
<polyline fill="none" stroke="#059669" stroke-width="2.0" stroke-linejoin="round" stroke-linecap="round" points="70.00,354.99 73.74,354.97 77.49,354.95 81.23,354.93 84.98,354.91 88.72,354.89 92.47,354.87 96.21,354.85 99.95,354.83 103.70,354.81 107.44,354.78 111.19,354.76 114.93,354.74 118.68,354.72 122.42,354.70 126.16,354.68 129.91,354.66 133.65,354.64 137.40,354.62 141.14,354.60 144.89,354.57 148.63,354.55 152.37,354.53 156.12,354.51 159.86,354.49 163.61,354.47 167.35,354.45 171.10,354.43 174.84,354.41 178.58,354.38 182.33,354.36 186.07,354.34 189.82,354.32 193.56,354.30 197.31,354.28 201.05,354.26 204.79,354.23 208.54,354.21 212.28,354.19 216.03,354.17 219.77,354.15 223.52,354.13 227.26,354.10 231.00,354.08 234.75,354.06 238.49,354.04 242.24,354.02 245.98,354.00 249.73,353.97 253.47,353.95 257.21,353.93 260.96,353.91 264.70,353.89 268.45,353.86 272.19,353.84 275.94,353.82 279.68,353.80 283.42,353.77 287.17,353.75 290.91,353.73 294.66,353.71 298.40,353.69 302.15,353.66 305.89,353.64 309.63,353.62 313.38,353.60 317.12,353.57 320.87,353.55 324.61,353.53 328.36,353.50 332.10,353.48 335.84,353.46 339.59,353.44 343.33,353.41 347.08,353.39 350.82,353.37 354.57,353.34 358.31,353.32 362.05,353.30 365.80,353.28 369.54,353.25 373.29,353.23 377.03,353.21 380.78,353.18 384.52,353.16 388.26,353.14 392.01,353.11 395.75,353.09 399.50,353.07 403.24,353.04 406.99,353.02 410.73,353.00 414.47,352.97 418.22,352.95 421.96,352.92 425.71,352.90 429.45,352.88 433.20,352.85 436.94,352.83 440.68,352.80 444.43,352.78 448.17,352.76 451.92,352.73 455.66,352.71 459.41,352.68 463.15,352.66 466.89,352.64 470.64,352.61 474.38,352.59 478.13,352.56 481.87,352.54 485.62,352.51 489.36,352.49 493.11,352.46 496.85,352.44 500.59,352.41 504.34,352.39 508.08,352.36 511.83,352.34 515.57,352.31 519.32,352.29 523.06,352.26 526.80,352.24 530.55,352.21 534.29,352.19 538.04,352.16 541.78,352.14 545.53,352.11 549.27,352.09 553.01,352.06 556.76,352.04 560.50,352.01 564.25,351.98 567.99,351.96 571.74,351.93 575.48,351.91 579.22,351.88 582.97,351.85 586.71,351.83 590.46,351.80 594.20,351.78 597.95,351.75 601.69,351.72 605.43,351.70 609.18,351.67 612.92,351.64 616.67,351.62 620.41,351.59 624.16,351.56 627.90,351.54 631.64,351.51 635.39,351.48 639.13,351.46 642.88,351.43 646.62,351.40 650.37,351.37 654.11,351.35 657.85,351.32 661.60,351.29 665.34,351.26 669.09,351.24 672.83,351.21 676.58,351.18 680.32,351.15 684.06,351.12 687.81,351.10 691.55,351.07 695.30,351.04 699.04,351.01 702.79,350.98 706.53,350.95 710.27,350.93 714.02,350.90 717.76,350.87 721.51,350.84 725.25,350.81 729.00,350.78 732.74,350.75 736.48,350.72 740.23,350.69 743.97,350.67 747.72,350.64 751.46,350.61 755.21,350.58 758.95,350.55 762.69,350.52 766.44,350.49 770.18,350.46 773.93,350.43 777.67,350.40 781.42,350.37 785.16,350.34 788.90,350.31 792.65,350.28 796.39,350.25 800.14,350.21 803.88,350.18 807.63,350.15 811.37,350.12 815.11,350.09 818.86,350.06 822.60,350.03 826.35,350.00 830.09,349.96 833.84,349.93 837.58,349.90 841.32,349.87 845.07,349.84 848.81,349.81 852.56,349.77 856.30,349.74 860.05,349.71 863.79,349.68 867.53,349.64 871.28,349.61 875.02,349.58 878.77,349.54 882.51,349.51 886.26,349.48 890.00,349.44" />
<line x1="750" y1="63.00" x2="770" y2="63.00" stroke="#111827" stroke-width="2.0"  />
<text x="776" y="67.00" text-anchor="start" font-family="ui-sans-serif, system-ui, -apple-system" font-size="12" fill="#111827">splits=1</text>
<line x1="750" y1="81.00" x2="770" y2="81.00" stroke="#2563EB" stroke-width="2.0"  />
<text x="776" y="85.00" text-anchor="start" font-family="ui-sans-serif, system-ui, -apple-system" font-size="12" fill="#111827">splits=5</text>
<line x1="750" y1="99.00" x2="770" y2="99.00" stroke="#DC2626" stroke-width="2.0"  />
<text x="776" y="103.00" text-anchor="start" font-family="ui-sans-serif, system-ui, -apple-system" font-size="12" fill="#111827">splits=10</text>
<line x1="750" y1="117.00" x2="770" y2="117.00" stroke="#059669" stroke-width="2.0"  />
<text x="776" y="121.00" text-anchor="start" font-family="ui-sans-serif, system-ui, -apple-system" font-size="12" fill="#111827">splits=50</text>
</svg>
