<?xml version="1.0" encoding="UTF-8"?>
<svg xmlns="http://www.w3.org/2000/svg" width="920" height="420" viewBox="0 0 920 420">
<rect x="0" y="0" width="920" height="420" fill="white" />
<text x="460.0" y="27.5" text-anchor="middle" font-family="ui-sans-serif, system-ui, -apple-system" font-size="16" fill="#111827">Figure 3 — Why “1 SY buys many YT”: geometric series amplification</text>
<line x1="70" y1="355.00" x2="890" y2="355.00" stroke="#E5E7EB" stroke-width="1" />
<line x1="70" y1="295.00" x2="890" y2="295.00" stroke="#E5E7EB" stroke-width="1" />
<line x1="70" y1="235.00" x2="890" y2="235.00" stroke="#E5E7EB" stroke-width="1" />
<line x1="70" y1="175.00" x2="890" y2="175.00" stroke="#E5E7EB" stroke-width="1" />
<line x1="70" y1="115.00" x2="890" y2="115.00" stroke="#E5E7EB" stroke-width="1" />
<line x1="70" y1="55.00" x2="890" y2="55.00" stroke="#E5E7EB" stroke-width="1" />
<line x1="70" y1="355" x2="890" y2="355" stroke="#111827" stroke-width="1.5" />
<line x1="70" y1="55" x2="70" y2="355" stroke="#111827" stroke-width="1.5" />
<line x1="70.00" y1="355" x2="70.00" y2="361" stroke="#111827" stroke-width="1" />
<text x="70.00" y="377" text-anchor="middle" font-family="ui-sans-serif, system-ui, -apple-system" font-size="12" fill="#374151">0.800</text>
<line x1="234.00" y1="355" x2="234.00" y2="361" stroke="#111827" stroke-width="1" />
<text x="234.00" y="377" text-anchor="middle" font-family="ui-sans-serif, system-ui, -apple-system" font-size="12" fill="#374151">0.840</text>
<line x1="398.00" y1="355" x2="398.00" y2="361" stroke="#111827" stroke-width="1" />
<text x="398.00" y="377" text-anchor="middle" font-family="ui-sans-serif, system-ui, -apple-system" font-size="12" fill="#374151">0.880</text>
<line x1="562.00" y1="355" x2="562.00" y2="361" stroke="#111827" stroke-width="1" />
<text x="562.00" y="377" text-anchor="middle" font-family="ui-sans-serif, system-ui, -apple-system" font-size="12" fill="#374151">0.919</text>
<line x1="726.00" y1="355" x2="726.00" y2="361" stroke="#111827" stroke-width="1" />
<text x="726.00" y="377" text-anchor="middle" font-family="ui-sans-serif, system-ui, -apple-system" font-size="12" fill="#374151">0.959</text>
<line x1="890.00" y1="355" x2="890.00" y2="361" stroke="#111827" stroke-width="1" />
<text x="890.00" y="377" text-anchor="middle" font-family="ui-sans-serif, system-ui, -apple-system" font-size="12" fill="#374151">0.999</text>
<line x1="64" y1="355.00" x2="70" y2="355.00" stroke="#111827" stroke-width="1" />
<text x="60" y="359.00" text-anchor="end" font-family="ui-sans-serif, system-ui, -apple-system" font-size="12" fill="#374151">0</text>
<line x1="64" y1="295.00" x2="70" y2="295.00" stroke="#111827" stroke-width="1" />
<text x="60" y="299.00" text-anchor="end" font-family="ui-sans-serif, system-ui, -apple-system" font-size="12" fill="#374151">25</text>
<line x1="64" y1="235.00" x2="70" y2="235.00" stroke="#111827" stroke-width="1" />
<text x="60" y="239.00" text-anchor="end" font-family="ui-sans-serif, system-ui, -apple-system" font-size="12" fill="#374151">50</text>
<line x1="64" y1="175.00" x2="70" y2="175.00" stroke="#111827" stroke-width="1" />
<text x="60" y="179.00" text-anchor="end" font-family="ui-sans-serif, system-ui, -apple-system" font-size="12" fill="#374151">76</text>
<line x1="64" y1="115.00" x2="70" y2="115.00" stroke="#111827" stroke-width="1" />
<text x="60" y="119.00" text-anchor="end" font-family="ui-sans-serif, system-ui, -apple-system" font-size="12" fill="#374151">101</text>
<line x1="64" y1="55.00" x2="70" y2="55.00" stroke="#111827" stroke-width="1" />
<text x="60" y="59.00" text-anchor="end" font-family="ui-sans-serif, system-ui, -apple-system" font-size="12" fill="#374151">126</text>
<text x="460.0" y="410" text-anchor="middle" font-family="ui-sans-serif, system-ui, -apple-system" font-size="13" fill="#111827">PT_price_asset (d = 1 / exchangeRate at the spot point)</text>
<text x="14" y="210.0" text-anchor="middle" font-family="ui-sans-serif, system-ui, -apple-system" font-size="13" fill="#111827" transform="rotate(-90, 14, 210.0)">YT per SY (approx)</text>
<polyline fill="none" stroke="#2563EB" stroke-width="2.0" stroke-linejoin="round" stroke-linecap="round" points="70.00,341.20 72.06,341.17 74.11,341.13 76.17,341.10 78.22,341.06 80.28,341.03 82.33,340.99 84.39,340.96 86.44,340.92 88.50,340.88 90.55,340.85 92.61,340.81 94.66,340.78 96.72,340.74 98.77,340.70 100.83,340.67 102.88,340.63 104.94,340.59 106.99,340.55 109.05,340.51 111.10,340.48 113.16,340.44 115.21,340.40 117.27,340.36 119.32,340.32 121.38,340.28 123.43,340.24 125.49,340.21 127.54,340.17 129.60,340.13 131.65,340.09 133.71,340.05 135.76,340.00 137.82,339.96 139.87,339.92 141.93,339.88 143.98,339.84 146.04,339.80 148.10,339.76 150.15,339.71 152.21,339.67 154.26,339.63 156.32,339.59 158.37,339.54 160.43,339.50 162.48,339.46 164.54,339.41 166.59,339.37 168.65,339.32 170.70,339.28 172.76,339.24 174.81,339.19 176.87,339.15 178.92,339.10 180.98,339.05 183.03,339.01 185.09,338.96 187.14,338.91 189.20,338.87 191.25,338.82 193.31,338.77 195.36,338.73 197.42,338.68 199.47,338.63 201.53,338.58 203.58,338.53 205.64,338.48 207.69,338.43 209.75,338.38 211.80,338.33 213.86,338.28 215.91,338.23 217.97,338.18 220.03,338.13 222.08,338.08 224.14,338.03 226.19,337.97 228.25,337.92 230.30,337.87 232.36,337.82 234.41,337.76 236.47,337.71 238.52,337.65 240.58,337.60 242.63,337.54 244.69,337.49 246.74,337.43 248.80,337.38 250.85,337.32 252.91,337.27 254.96,337.21 257.02,337.15 259.07,337.09 261.13,337.03 263.18,336.98 265.24,336.92 267.29,336.86 269.35,336.80 271.40,336.74 273.46,336.68 275.51,336.62 277.57,336.56 279.62,336.49 281.68,336.43 283.73,336.37 285.79,336.31 287.84,336.24 289.90,336.18 291.95,336.12 294.01,336.05 296.07,335.99 298.12,335.92 300.18,335.85 302.23,335.79 304.29,335.72 306.34,335.65 308.40,335.59 310.45,335.52 312.51,335.45 314.56,335.38 316.62,335.31 318.67,335.24 320.73,335.17 322.78,335.10 324.84,335.02 326.89,334.95 328.95,334.88 331.00,334.81 333.06,334.73 335.11,334.66 337.17,334.58 339.22,334.51 341.28,334.43 343.33,334.35 345.39,334.28 347.44,334.20 349.50,334.12 351.55,334.04 353.61,333.96 355.66,333.88 357.72,333.80 359.77,333.72 361.83,333.64 363.88,333.55 365.94,333.47 367.99,333.39 370.05,333.30 372.11,333.22 374.16,333.13 376.22,333.04 378.27,332.96 380.33,332.87 382.38,332.78 384.44,332.69 386.49,332.60 388.55,332.51 390.60,332.42 392.66,332.32 394.71,332.23 396.77,332.14 398.82,332.04 400.88,331.94 402.93,331.85 404.99,331.75 407.04,331.65 409.10,331.55 411.15,331.45 413.21,331.35 415.26,331.25 417.32,331.15 419.37,331.05 421.43,330.94 423.48,330.84 425.54,330.73 427.59,330.62 429.65,330.52 431.70,330.41 433.76,330.30 435.81,330.19 437.87,330.08 439.92,329.96 441.98,329.85 444.04,329.73 446.09,329.62 448.15,329.50 450.20,329.38 452.26,329.26 454.31,329.14 456.37,329.02 458.42,328.90 460.48,328.78 462.53,328.65 464.59,328.53 466.64,328.40 468.70,328.27 470.75,328.14 472.81,328.01 474.86,327.88 476.92,327.74 478.97,327.61 481.03,327.47 483.08,327.33 485.14,327.19 487.19,327.05 489.25,326.91 491.30,326.77 493.36,326.62 495.41,326.48 497.47,326.33 499.52,326.18 501.58,326.03 503.63,325.88 505.69,325.72 507.74,325.57 509.80,325.41 511.85,325.25 513.91,325.09 515.96,324.93 518.02,324.76 520.08,324.60 522.13,324.43 524.19,324.26 526.24,324.09 528.30,323.91 530.35,323.74 532.41,323.56 534.46,323.38 536.52,323.20 538.57,323.02 540.63,322.83 542.68,322.64 544.74,322.45 546.79,322.26 548.85,322.06 550.90,321.87 552.96,321.67 555.01,321.47 557.07,321.26 559.12,321.05 561.18,320.84 563.23,320.63 565.29,320.42 567.34,320.20 569.40,319.98 571.45,319.76 573.51,319.53 575.56,319.30 577.62,319.07 579.67,318.84 581.73,318.60 583.78,318.36 585.84,318.11 587.89,317.86 589.95,317.61 592.01,317.36 594.06,317.10 596.12,316.84 598.17,316.58 600.23,316.31 602.28,316.03 604.34,315.76 606.39,315.48 608.45,315.19 610.50,314.90 612.56,314.61 614.61,314.32 616.67,314.01 618.72,313.71 620.78,313.40 622.83,313.08 624.89,312.76 626.94,312.44 629.00,312.11 631.05,311.77 633.11,311.43 635.16,311.09 637.22,310.73 639.27,310.38 641.33,310.02 643.38,309.65 645.44,309.27 647.49,308.89 649.55,308.50 651.60,308.11 653.66,307.71 655.71,307.30 657.77,306.89 659.82,306.46 661.88,306.03 663.93,305.60 665.99,305.15 668.05,304.70 670.10,304.24 672.16,303.77 674.21,303.29 676.27,302.80 678.32,302.30 680.38,301.80 682.43,301.28 684.49,300.75 686.54,300.22 688.60,299.67 690.65,299.11 692.71,298.54 694.76,297.96 696.82,297.36 698.87,296.76 700.93,296.14 702.98,295.50 705.04,294.86 707.09,294.20 709.15,293.52 711.20,292.83 713.26,292.12 715.31,291.40 717.37,290.66 719.42,289.91 721.48,289.13 723.53,288.34 725.59,287.52 727.64,286.69 729.70,285.84 731.75,284.96 733.81,284.06 735.86,283.14 737.92,282.20 739.97,281.23 742.03,280.23 744.09,279.21 746.14,278.15 748.20,277.07 750.25,275.96 752.31,274.81 754.36,273.63 756.42,272.42 758.47,271.17 760.53,269.88 762.58,268.55 764.64,267.18 766.69,265.76 768.75,264.30 770.80,262.79 772.86,261.22 774.91,259.61 776.97,257.93 779.02,256.20 781.08,254.40 783.13,252.54 785.19,250.61 787.24,248.60 789.30,246.51 791.35,244.34 793.41,242.09 795.46,239.73 797.52,237.28 799.57,234.72 801.63,232.05 803.68,229.26 805.74,226.33 807.79,223.27 809.85,220.06 811.90,216.68 813.96,213.14 816.02,209.40 818.07,205.47 820.13,201.32 822.18,196.93 824.24,192.28 826.29,187.35 828.35,182.11 830.40,176.53 832.46,170.59 834.51,164.23 836.57,157.42 838.62,150.10 840.68,142.22 842.73,133.71 844.79,124.49 846.84,114.47 848.90,103.54 850.95,91.57 853.01,78.40 855.06,69.29 857.12,69.29 859.17,69.29 861.23,69.29 863.28,69.29 865.34,69.29 867.39,69.29 869.45,69.29 871.50,69.29 873.56,69.29 875.61,69.29 877.67,69.29 879.72,69.29 881.78,69.29 883.83,69.29 885.89,69.29 887.94,69.29 890.00,69.29" />
<polyline fill="none" stroke="#DC2626" stroke-width="2.0" stroke-linejoin="round" stroke-linecap="round" points="70.00,341.24 72.06,341.21 74.11,341.17 76.17,341.14 78.22,341.10 80.28,341.07 82.33,341.03 84.39,341.00 86.44,340.96 88.50,340.93 90.55,340.89 92.61,340.86 94.66,340.82 96.72,340.78 98.77,340.75 100.83,340.71 102.88,340.67 104.94,340.63 106.99,340.60 109.05,340.56 111.10,340.52 113.16,340.48 115.21,340.45 117.27,340.41 119.32,340.37 121.38,340.33 123.43,340.29 125.49,340.25 127.54,340.21 129.60,340.17 131.65,340.13 133.71,340.09 135.76,340.05 137.82,340.01 139.87,339.97 141.93,339.93 143.98,339.89 146.04,339.85 148.10,339.81 150.15,339.77 152.21,339.72 154.26,339.68 156.32,339.64 158.37,339.60 160.43,339.55 162.48,339.51 164.54,339.47 166.59,339.42 168.65,339.38 170.70,339.33 172.76,339.29 174.81,339.25 176.87,339.20 178.92,339.16 180.98,339.11 183.03,339.06 185.09,339.02 187.14,338.97 189.20,338.93 191.25,338.88 193.31,338.83 195.36,338.78 197.42,338.74 199.47,338.69 201.53,338.64 203.58,338.59 205.64,338.54 207.69,338.49 209.75,338.44 211.80,338.39 213.86,338.34 215.91,338.29 217.97,338.24 220.03,338.19 222.08,338.14 224.14,338.09 226.19,338.04 228.25,337.99 230.30,337.93 232.36,337.88 234.41,337.83 236.47,337.78 238.52,337.72 240.58,337.67 242.63,337.61 244.69,337.56 246.74,337.50 248.80,337.45 250.85,337.39 252.91,337.34 254.96,337.28 257.02,337.22 259.07,337.16 261.13,337.11 263.18,337.05 265.24,336.99 267.29,336.93 269.35,336.87 271.40,336.81 273.46,336.75 275.51,336.69 277.57,336.63 279.62,336.57 281.68,336.51 283.73,336.45 285.79,336.39 287.84,336.32 289.90,336.26 291.95,336.20 294.01,336.13 296.07,336.07 298.12,336.00 300.18,335.94 302.23,335.87 304.29,335.80 306.34,335.74 308.40,335.67 310.45,335.60 312.51,335.53 314.56,335.47 316.62,335.40 318.67,335.33 320.73,335.26 322.78,335.19 324.84,335.12 326.89,335.04 328.95,334.97 331.00,334.90 333.06,334.83 335.11,334.75 337.17,334.68 339.22,334.60 341.28,334.53 343.33,334.45 345.39,334.37 347.44,334.30 349.50,334.22 351.55,334.14 353.61,334.06 355.66,333.98 357.72,333.90 359.77,333.82 361.83,333.74 363.88,333.66 365.94,333.58 367.99,333.49 370.05,333.41 372.11,333.33 374.16,333.24 376.22,333.15 378.27,333.07 380.33,332.98 382.38,332.89 384.44,332.80 386.49,332.71 388.55,332.62 390.60,332.53 392.66,332.44 394.71,332.35 396.77,332.26 398.82,332.16 400.88,332.07 402.93,331.97 404.99,331.88 407.04,331.78 409.10,331.68 411.15,331.58 413.21,331.48 415.26,331.38 417.32,331.28 419.37,331.18 421.43,331.08 423.48,330.97 425.54,330.87 427.59,330.76 429.65,330.66 431.70,330.55 433.76,330.44 435.81,330.33 437.87,330.22 439.92,330.11 441.98,330.00 444.04,329.88 446.09,329.77 448.15,329.65 450.20,329.54 452.26,329.42 454.31,329.30 456.37,329.18 458.42,329.06 460.48,328.94 462.53,328.82 464.59,328.69 466.64,328.57 468.70,328.44 470.75,328.31 472.81,328.18 474.86,328.05 476.92,327.92 478.97,327.79 481.03,327.65 483.08,327.52 485.14,327.38 487.19,327.24 489.25,327.10 491.30,326.96 493.36,326.82 495.41,326.67 497.47,326.53 499.52,326.38 501.58,326.23 503.63,326.08 505.69,325.93 507.74,325.78 509.80,325.62 511.85,325.46 513.91,325.31 515.96,325.15 518.02,324.98 520.08,324.82 522.13,324.65 524.19,324.49 526.24,324.32 528.30,324.15 530.35,323.97 532.41,323.80 534.46,323.62 536.52,323.44 538.57,323.26 540.63,323.08 542.68,322.89 544.74,322.71 546.79,322.52 548.85,322.33 550.90,322.13 552.96,321.94 555.01,321.74 557.07,321.54 559.12,321.33 561.18,321.13 563.23,320.92 565.29,320.71 567.34,320.49 569.40,320.28 571.45,320.06 573.51,319.84 575.56,319.61 577.62,319.38 579.67,319.15 581.73,318.92 583.78,318.68 585.84,318.44 587.89,318.20 589.95,317.95 592.01,317.71 594.06,317.45 596.12,317.20 598.17,316.94 600.23,316.67 602.28,316.41 604.34,316.13 606.39,315.86 608.45,315.58 610.50,315.30 612.56,315.01 614.61,314.72 616.67,314.43 618.72,314.13 620.78,313.82 622.83,313.51 624.89,313.20 626.94,312.88 629.00,312.56 631.05,312.23 633.11,311.90 635.16,311.56 637.22,311.22 639.27,310.87 641.33,310.51 643.38,310.15 645.44,309.79 647.49,309.42 649.55,309.04 651.60,308.65 653.66,308.26 655.71,307.86 657.77,307.46 659.82,307.05 661.88,306.63 663.93,306.20 665.99,305.77 668.05,305.33 670.10,304.88 672.16,304.42 674.21,303.95 676.27,303.48 678.32,302.99 680.38,302.50 682.43,302.00 684.49,301.49 686.54,300.96 688.60,300.43 690.65,299.89 692.71,299.33 694.76,298.77 696.82,298.19 698.87,297.60 700.93,297.00 702.98,296.39 705.04,295.76 707.09,295.12 709.15,294.47 711.20,293.80 713.26,293.11 715.31,292.41 717.37,291.70 719.42,290.97 721.48,290.22 723.53,289.45 725.59,288.67 727.64,287.86 729.70,287.04 731.75,286.19 733.81,285.33 735.86,284.44 737.92,283.53 739.97,282.59 742.03,281.63 744.09,280.65 746.14,279.64 748.20,278.60 750.25,277.53 752.31,276.43 754.36,275.30 756.42,274.13 758.47,272.94 760.53,271.70 762.58,270.43 764.64,269.12 766.69,267.77 768.75,266.37 770.80,264.93 772.86,263.44 774.91,261.90 776.97,260.31 779.02,258.66 781.08,256.95 783.13,255.19 785.19,253.35 787.24,251.45 789.30,249.48 791.35,247.43 793.41,245.30 795.46,243.08 797.52,240.77 799.57,238.37 801.63,235.86 803.68,233.24 805.74,230.50 807.79,227.64 809.85,224.64 811.90,221.50 813.96,218.20 816.02,214.73 818.07,211.09 820.13,207.25 822.18,203.20 824.24,198.92 826.29,194.39 828.35,189.59 830.40,184.50 832.46,179.08 834.51,173.31 836.57,167.15 838.62,160.55 840.68,153.47 842.73,145.86 844.79,137.65 846.84,128.77 848.90,119.14 850.95,108.64 853.01,97.17 855.06,84.58 857.12,70.70 859.17,69.29 861.23,69.29 863.28,69.29 865.34,69.29 867.39,69.29 869.45,69.29 871.50,69.29 873.56,69.29 875.61,69.29 877.67,69.29 879.72,69.29 881.78,69.29 883.83,69.29 885.89,69.29 887.94,69.29 890.00,69.29" />
<circle cx="673.71" cy="304.07" r="4" fill="#111827" />
<text x="681.71" y="296.07" text-anchor="start" font-family="ui-sans-serif, system-ui, -apple-system" font-size="12" fill="#111827">example: d≈0.947 → ~21.4 YT/SY</text>
<line x1="750" y1="63.00" x2="770" y2="63.00" stroke="#2563EB" stroke-width="2.0"  />
<text x="776" y="67.00" text-anchor="start" font-family="ui-sans-serif, system-ui, -apple-system" font-size="12" fill="#111827">No fee (F=1)</text>
<line x1="750" y1="81.00" x2="770" y2="81.00" stroke="#DC2626" stroke-width="2.0"  />
<text x="776" y="85.00" text-anchor="start" font-family="ui-sans-serif, system-ui, -apple-system" font-size="12" fill="#111827">With fee (F≈1.000734)</text>
</svg>
