<?xml version="1.0" encoding="UTF-8"?>
<svg xmlns="http://www.w3.org/2000/svg" width="920" height="680" viewBox="0 0 920 680">
<g transform="translate(0,0)">
<rect x="0" y="0" width="920" height="320" fill="white" />
<text x="460.0" y="25.0" text-anchor="middle" font-family="ui-sans-serif, system-ui, -apple-system" font-size="16" fill="#111827">Figure 1A — PT price (asset) vs inventory proportion p</text>
<line x1="70" y1="260.00" x2="890" y2="260.00" stroke="#E5E7EB" stroke-width="1" />
<line x1="70" y1="207.50" x2="890" y2="207.50" stroke="#E5E7EB" stroke-width="1" />
<line x1="70" y1="155.00" x2="890" y2="155.00" stroke="#E5E7EB" stroke-width="1" />
<line x1="70" y1="102.50" x2="890" y2="102.50" stroke="#E5E7EB" stroke-width="1" />
<line x1="70" y1="50.00" x2="890" y2="50.00" stroke="#E5E7EB" stroke-width="1" />
<line x1="329.83" y1="50" x2="329.83" y2="260" stroke="#9CA3AF" stroke-width="1.5" stroke-dasharray="4 4" />
<text x="335.83" y="66" text-anchor="start" font-family="ui-sans-serif, system-ui, -apple-system" font-size="12" fill="#6B7280">current p0</text>
<line x1="70" y1="260" x2="890" y2="260" stroke="#111827" stroke-width="1.5" />
<line x1="70" y1="50" x2="70" y2="260" stroke="#111827" stroke-width="1.5" />
<line x1="70.00" y1="260" x2="70.00" y2="266" stroke="#111827" stroke-width="1" />
<text x="70.00" y="282" text-anchor="middle" font-family="ui-sans-serif, system-ui, -apple-system" font-size="12" fill="#374151">0.052</text>
<line x1="234.00" y1="260" x2="234.00" y2="266" stroke="#111827" stroke-width="1" />
<text x="234.00" y="282" text-anchor="middle" font-family="ui-sans-serif, system-ui, -apple-system" font-size="12" fill="#374151">0.234</text>
<line x1="398.00" y1="260" x2="398.00" y2="266" stroke="#111827" stroke-width="1" />
<text x="398.00" y="282" text-anchor="middle" font-family="ui-sans-serif, system-ui, -apple-system" font-size="12" fill="#374151">0.415</text>
<line x1="562.00" y1="260" x2="562.00" y2="266" stroke="#111827" stroke-width="1" />
<text x="562.00" y="282" text-anchor="middle" font-family="ui-sans-serif, system-ui, -apple-system" font-size="12" fill="#374151">0.597</text>
<line x1="726.00" y1="260" x2="726.00" y2="266" stroke="#111827" stroke-width="1" />
<text x="726.00" y="282" text-anchor="middle" font-family="ui-sans-serif, system-ui, -apple-system" font-size="12" fill="#374151">0.778</text>
<line x1="890.00" y1="260" x2="890.00" y2="266" stroke="#111827" stroke-width="1" />
<text x="890.00" y="282" text-anchor="middle" font-family="ui-sans-serif, system-ui, -apple-system" font-size="12" fill="#374151">0.960</text>
<line x1="64" y1="260.00" x2="70" y2="260.00" stroke="#111827" stroke-width="1" />
<text x="60" y="264.00" text-anchor="end" font-family="ui-sans-serif, system-ui, -apple-system" font-size="12" fill="#374151">0.8591</text>
<line x1="64" y1="207.50" x2="70" y2="207.50" stroke="#111827" stroke-width="1" />
<text x="60" y="211.50" text-anchor="end" font-family="ui-sans-serif, system-ui, -apple-system" font-size="12" fill="#374151">0.8964</text>
<line x1="64" y1="155.00" x2="70" y2="155.00" stroke="#111827" stroke-width="1" />
<text x="60" y="159.00" text-anchor="end" font-family="ui-sans-serif, system-ui, -apple-system" font-size="12" fill="#374151">0.9337</text>
<line x1="64" y1="102.50" x2="70" y2="102.50" stroke="#111827" stroke-width="1" />
<text x="60" y="106.50" text-anchor="end" font-family="ui-sans-serif, system-ui, -apple-system" font-size="12" fill="#374151">0.9711</text>
<line x1="64" y1="50.00" x2="70" y2="50.00" stroke="#111827" stroke-width="1" />
<text x="60" y="54.00" text-anchor="end" font-family="ui-sans-serif, system-ui, -apple-system" font-size="12" fill="#374151">1.0084</text>
<text x="460.0" y="310" text-anchor="middle" font-family="ui-sans-serif, system-ui, -apple-system" font-size="13" fill="#111827">p = PT / (PT + asset)  (after applying trade size: totalPt - netPtToAccount)</text>
<text x="14" y="160.0" text-anchor="middle" font-family="ui-sans-serif, system-ui, -apple-system" font-size="13" fill="#111827" transform="rotate(-90, 14, 160.0)">PT_price_asset</text>
<polyline fill="none" stroke="#2563EB" stroke-width="2.0" stroke-linejoin="round" stroke-linecap="round" points="70.00,64.48 72.06,66.03 74.11,67.51 76.17,68.93 78.22,70.30 80.28,71.62 82.33,72.90 84.39,74.13 86.44,75.32 88.50,76.48 90.55,77.60 92.61,78.68 94.66,79.74 96.72,80.77 98.77,81.77 100.83,82.74 102.88,83.69 104.94,84.62 106.99,85.53 109.05,86.41 111.10,87.28 113.16,88.12 115.21,88.95 117.27,89.76 119.32,90.56 121.38,91.33 123.43,92.10 125.49,92.85 127.54,93.58 129.60,94.31 131.65,95.01 133.71,95.71 135.76,96.40 137.82,97.07 139.87,97.74 141.93,98.39 143.98,99.03 146.04,99.66 148.10,100.29 150.15,100.90 152.21,101.51 154.26,102.11 156.32,102.69 158.37,103.28 160.43,103.85 162.48,104.42 164.54,104.97 166.59,105.53 168.65,106.07 170.70,106.61 172.76,107.14 174.81,107.67 176.87,108.19 178.92,108.70 180.98,109.21 183.03,109.71 185.09,110.21 187.14,110.70 189.20,111.19 191.25,111.67 193.31,112.14 195.36,112.62 197.42,113.08 199.47,113.55 201.53,114.01 203.58,114.46 205.64,114.91 207.69,115.36 209.75,115.80 211.80,116.24 213.86,116.67 215.91,117.10 217.97,117.53 220.03,117.95 222.08,118.37 224.14,118.79 226.19,119.20 228.25,119.61 230.30,120.02 232.36,120.42 234.41,120.83 236.47,121.22 238.52,121.62 240.58,122.01 242.63,122.40 244.69,122.79 246.74,123.17 248.80,123.56 250.85,123.93 252.91,124.31 254.96,124.69 257.02,125.06 259.07,125.43 261.13,125.80 263.18,126.16 265.24,126.52 267.29,126.89 269.35,127.24 271.40,127.60 273.46,127.96 275.51,128.31 277.57,128.66 279.62,129.01 281.68,129.36 283.73,129.70 285.79,130.04 287.84,130.39 289.90,130.73 291.95,131.06 294.01,131.40 296.07,131.74 298.12,132.07 300.18,132.40 302.23,132.73 304.29,133.06 306.34,133.39 308.40,133.71 310.45,134.04 312.51,134.36 314.56,134.68 316.62,135.00 318.67,135.32 320.73,135.64 322.78,135.96 324.84,136.27 326.89,136.59 328.95,136.90 331.00,137.21 333.06,137.52 335.11,137.83 337.17,138.14 339.22,138.45 341.28,138.75 343.33,139.06 345.39,139.36 347.44,139.67 349.50,139.97 351.55,140.27 353.61,140.57 355.66,140.87 357.72,141.17 359.77,141.46 361.83,141.76 363.88,142.06 365.94,142.35 367.99,142.65 370.05,142.94 372.11,143.23 374.16,143.52 376.22,143.82 378.27,144.11 380.33,144.40 382.38,144.68 384.44,144.97 386.49,145.26 388.55,145.55 390.60,145.83 392.66,146.12 394.71,146.40 396.77,146.69 398.82,146.97 400.88,147.26 402.93,147.54 404.99,147.82 407.04,148.10 409.10,148.38 411.15,148.66 413.21,148.94 415.26,149.22 417.32,149.50 419.37,149.78 421.43,150.06 423.48,150.34 425.54,150.62 427.59,150.89 429.65,151.17 431.70,151.45 433.76,151.72 435.81,152.00 437.87,152.27 439.92,152.55 441.98,152.82 444.04,153.10 446.09,153.37 448.15,153.65 450.20,153.92 452.26,154.19 454.31,154.47 456.37,154.74 458.42,155.01 460.48,155.28 462.53,155.56 464.59,155.83 466.64,156.10 468.70,156.37 470.75,156.64 472.81,156.92 474.86,157.19 476.92,157.46 478.97,157.73 481.03,158.00 483.08,158.27 485.14,158.54 487.19,158.81 489.25,159.09 491.30,159.36 493.36,159.63 495.41,159.90 497.47,160.17 499.52,160.44 501.58,160.71 503.63,160.98 505.69,161.25 507.74,161.52 509.80,161.79 511.85,162.07 513.91,162.34 515.96,162.61 518.02,162.88 520.08,163.15 522.13,163.42 524.19,163.69 526.24,163.97 528.30,164.24 530.35,164.51 532.41,164.78 534.46,165.06 536.52,165.33 538.57,165.60 540.63,165.88 542.68,166.15 544.74,166.42 546.79,166.70 548.85,166.97 550.90,167.25 552.96,167.52 555.01,167.80 557.07,168.08 559.12,168.35 561.18,168.63 563.23,168.91 565.29,169.18 567.34,169.46 569.40,169.74 571.45,170.02 573.51,170.30 575.56,170.58 577.62,170.86 579.67,171.14 581.73,171.42 583.78,171.70 585.84,171.98 587.89,172.26 589.95,172.55 592.01,172.83 594.06,173.12 596.12,173.40 598.17,173.69 600.23,173.97 602.28,174.26 604.34,174.55 606.39,174.84 608.45,175.13 610.50,175.42 612.56,175.71 614.61,176.00 616.67,176.29 618.72,176.58 620.78,176.88 622.83,177.17 624.89,177.47 626.94,177.76 629.00,178.06 631.05,178.36 633.11,178.66 635.16,178.96 637.22,179.26 639.27,179.56 641.33,179.86 643.38,180.17 645.44,180.47 647.49,180.78 649.55,181.08 651.60,181.39 653.66,181.70 655.71,182.01 657.77,182.32 659.82,182.64 661.88,182.95 663.93,183.27 665.99,183.58 668.05,183.90 670.10,184.22 672.16,184.54 674.21,184.87 676.27,185.19 678.32,185.52 680.38,185.84 682.43,186.17 684.49,186.50 686.54,186.83 688.60,187.17 690.65,187.50 692.71,187.84 694.76,188.18 696.82,188.52 698.87,188.86 700.93,189.20 702.98,189.55 705.04,189.90 707.09,190.25 709.15,190.60 711.20,190.95 713.26,191.31 715.31,191.67 717.37,192.03 719.42,192.39 721.48,192.76 723.53,193.12 725.59,193.49 727.64,193.87 729.70,194.24 731.75,194.62 733.81,195.00 735.86,195.38 737.92,195.77 739.97,196.16 742.03,196.55 744.09,196.94 746.14,197.34 748.20,197.74 750.25,198.15 752.31,198.56 754.36,198.97 756.42,199.38 758.47,199.80 760.53,200.22 762.58,200.65 764.64,201.08 766.69,201.51 768.75,201.95 770.80,202.39 772.86,202.84 774.91,203.29 776.97,203.74 779.02,204.20 781.08,204.67 783.13,205.14 785.19,205.61 787.24,206.09 789.30,206.58 791.35,207.07 793.41,207.57 795.46,208.07 797.52,208.58 799.57,209.10 801.63,209.62 803.68,210.15 805.74,210.69 807.79,211.23 809.85,211.78 811.90,212.34 813.96,212.91 816.02,213.48 818.07,214.07 820.13,214.66 822.18,215.27 824.24,215.88 826.29,216.50 828.35,217.14 830.40,217.78 832.46,218.44 834.51,219.11 836.57,219.79 838.62,220.49 840.68,221.20 842.73,221.92 844.79,222.66 846.84,223.42 848.90,224.19 850.95,224.98 853.01,225.79 855.06,226.62 857.12,227.47 859.17,228.34 861.23,229.24 863.28,230.16 865.34,231.11 867.39,232.08 869.45,233.09 871.50,234.13 873.56,235.21 875.61,236.32 877.67,237.48 879.72,238.68 881.78,239.93 883.83,241.23 885.89,242.59 887.94,244.02 890.00,245.52" />
<circle cx="329.83" cy="137.03" r="4" fill="#DC2626" />
<text x="337.83" y="129.03" text-anchor="start" font-family="ui-sans-serif, system-ui, -apple-system" font-size="12" fill="#111827">current p0=0.340</text>
</g>
<g transform="translate(0,340)">
<rect x="0" y="0" width="920" height="320" fill="white" />
<text x="460.0" y="25.0" text-anchor="middle" font-family="ui-sans-serif, system-ui, -apple-system" font-size="16" fill="#111827">Figure 1B — Implied APY (effective, from lnImpliedRate) vs p</text>
<line x1="70" y1="260.00" x2="890" y2="260.00" stroke="#E5E7EB" stroke-width="1" />
<line x1="70" y1="207.50" x2="890" y2="207.50" stroke="#E5E7EB" stroke-width="1" />
<line x1="70" y1="155.00" x2="890" y2="155.00" stroke="#E5E7EB" stroke-width="1" />
<line x1="70" y1="102.50" x2="890" y2="102.50" stroke="#E5E7EB" stroke-width="1" />
<line x1="70" y1="50.00" x2="890" y2="50.00" stroke="#E5E7EB" stroke-width="1" />
<line x1="329.83" y1="50" x2="329.83" y2="260" stroke="#9CA3AF" stroke-width="1.5" stroke-dasharray="4 4" />
<text x="335.83" y="66" text-anchor="start" font-family="ui-sans-serif, system-ui, -apple-system" font-size="12" fill="#6B7280">current p0</text>
<line x1="70" y1="260" x2="890" y2="260" stroke="#111827" stroke-width="1.5" />
<line x1="70" y1="50" x2="70" y2="260" stroke="#111827" stroke-width="1.5" />
<line x1="70.00" y1="260" x2="70.00" y2="266" stroke="#111827" stroke-width="1" />
<text x="70.00" y="282" text-anchor="middle" font-family="ui-sans-serif, system-ui, -apple-system" font-size="12" fill="#374151">0.052</text>
<line x1="234.00" y1="260" x2="234.00" y2="266" stroke="#111827" stroke-width="1" />
<text x="234.00" y="282" text-anchor="middle" font-family="ui-sans-serif, system-ui, -apple-system" font-size="12" fill="#374151">0.234</text>
<line x1="398.00" y1="260" x2="398.00" y2="266" stroke="#111827" stroke-width="1" />
<text x="398.00" y="282" text-anchor="middle" font-family="ui-sans-serif, system-ui, -apple-system" font-size="12" fill="#374151">0.415</text>
<line x1="562.00" y1="260" x2="562.00" y2="266" stroke="#111827" stroke-width="1" />
<text x="562.00" y="282" text-anchor="middle" font-family="ui-sans-serif, system-ui, -apple-system" font-size="12" fill="#374151">0.597</text>
<line x1="726.00" y1="260" x2="726.00" y2="266" stroke="#111827" stroke-width="1" />
<text x="726.00" y="282" text-anchor="middle" font-family="ui-sans-serif, system-ui, -apple-system" font-size="12" fill="#374151">0.778</text>
<line x1="890.00" y1="260" x2="890.00" y2="266" stroke="#111827" stroke-width="1" />
<text x="890.00" y="282" text-anchor="middle" font-family="ui-sans-serif, system-ui, -apple-system" font-size="12" fill="#374151">0.960</text>
<line x1="64" y1="260.00" x2="70" y2="260.00" stroke="#111827" stroke-width="1" />
<text x="60" y="264.00" text-anchor="end" font-family="ui-sans-serif, system-ui, -apple-system" font-size="12" fill="#374151">0.0%</text>
<line x1="64" y1="207.50" x2="70" y2="207.50" stroke="#111827" stroke-width="1" />
<text x="60" y="211.50" text-anchor="end" font-family="ui-sans-serif, system-ui, -apple-system" font-size="12" fill="#374151">19.5%</text>
<line x1="64" y1="155.00" x2="70" y2="155.00" stroke="#111827" stroke-width="1" />
<text x="60" y="159.00" text-anchor="end" font-family="ui-sans-serif, system-ui, -apple-system" font-size="12" fill="#374151">38.9%</text>
<line x1="64" y1="102.50" x2="70" y2="102.50" stroke="#111827" stroke-width="1" />
<text x="60" y="106.50" text-anchor="end" font-family="ui-sans-serif, system-ui, -apple-system" font-size="12" fill="#374151">58.4%</text>
<line x1="64" y1="50.00" x2="70" y2="50.00" stroke="#111827" stroke-width="1" />
<text x="60" y="54.00" text-anchor="end" font-family="ui-sans-serif, system-ui, -apple-system" font-size="12" fill="#374151">77.8%</text>
<text x="460.0" y="310" text-anchor="middle" font-family="ui-sans-serif, system-ui, -apple-system" font-size="13" fill="#111827">p (same as above)</text>
<text x="14" y="160.0" text-anchor="middle" font-family="ui-sans-serif, system-ui, -apple-system" font-size="13" fill="#111827" transform="rotate(-90, 14, 160.0)">Implied APY</text>
<polyline fill="none" stroke="#059669" stroke-width="2.0" stroke-linejoin="round" stroke-linecap="round" points="70.00,258.00 72.06,256.86 74.11,255.75 76.17,254.68 78.22,253.65 80.28,252.65 82.33,251.68 84.39,250.74 86.44,249.83 88.50,248.94 90.55,248.07 92.61,247.23 94.66,246.40 96.72,245.60 98.77,244.81 100.83,244.05 102.88,243.29 104.94,242.56 106.99,241.84 109.05,241.13 111.10,240.44 113.16,239.76 115.21,239.10 117.27,238.44 119.32,237.80 121.38,237.17 123.43,236.54 125.49,235.93 127.54,235.33 129.60,234.74 131.65,234.15 133.71,233.58 135.76,233.01 137.82,232.45 139.87,231.90 141.93,231.36 143.98,230.82 146.04,230.29 148.10,229.77 150.15,229.26 152.21,228.75 154.26,228.24 156.32,227.74 158.37,227.25 160.43,226.77 162.48,226.28 164.54,225.81 166.59,225.34 168.65,224.87 170.70,224.41 172.76,223.95 174.81,223.50 176.87,223.05 178.92,222.61 180.98,222.17 183.03,221.73 185.09,221.30 187.14,220.88 189.20,220.45 191.25,220.03 193.31,219.61 195.36,219.20 197.42,218.79 199.47,218.38 201.53,217.98 203.58,217.58 205.64,217.18 207.69,216.79 209.75,216.40 211.80,216.01 213.86,215.62 215.91,215.24 217.97,214.86 220.03,214.48 222.08,214.10 224.14,213.73 226.19,213.36 228.25,212.99 230.30,212.63 232.36,212.26 234.41,211.90 236.47,211.54 238.52,211.18 240.58,210.83 242.63,210.47 244.69,210.12 246.74,209.77 248.80,209.42 250.85,209.08 252.91,208.73 254.96,208.39 257.02,208.05 259.07,207.71 261.13,207.37 263.18,207.04 265.24,206.70 267.29,206.37 269.35,206.04 271.40,205.71 273.46,205.38 275.51,205.06 277.57,204.73 279.62,204.41 281.68,204.08 283.73,203.76 285.79,203.44 287.84,203.12 289.90,202.81 291.95,202.49 294.01,202.17 296.07,201.86 298.12,201.55 300.18,201.23 302.23,200.92 304.29,200.61 306.34,200.30 308.40,200.00 310.45,199.69 312.51,199.38 314.56,199.08 316.62,198.77 318.67,198.47 320.73,198.17 322.78,197.87 324.84,197.57 326.89,197.27 328.95,196.97 331.00,196.67 333.06,196.37 335.11,196.07 337.17,195.78 339.22,195.48 341.28,195.19 343.33,194.89 345.39,194.60 347.44,194.31 349.50,194.02 351.55,193.73 353.61,193.43 355.66,193.14 357.72,192.85 359.77,192.57 361.83,192.28 363.88,191.99 365.94,191.70 367.99,191.41 370.05,191.13 372.11,190.84 374.16,190.56 376.22,190.27 378.27,189.99 380.33,189.70 382.38,189.42 384.44,189.13 386.49,188.85 388.55,188.57 390.60,188.28 392.66,188.00 394.71,187.72 396.77,187.44 398.82,187.16 400.88,186.88 402.93,186.59 404.99,186.31 407.04,186.03 409.10,185.75 411.15,185.47 413.21,185.19 415.26,184.91 417.32,184.63 419.37,184.36 421.43,184.08 423.48,183.80 425.54,183.52 427.59,183.24 429.65,182.96 431.70,182.68 433.76,182.40 435.81,182.13 437.87,181.85 439.92,181.57 441.98,181.29 444.04,181.01 446.09,180.73 448.15,180.46 450.20,180.18 452.26,179.90 454.31,179.62 456.37,179.34 458.42,179.06 460.48,178.79 462.53,178.51 464.59,178.23 466.64,177.95 468.70,177.67 470.75,177.39 472.81,177.11 474.86,176.83 476.92,176.55 478.97,176.27 481.03,175.99 483.08,175.71 485.14,175.43 487.19,175.15 489.25,174.87 491.30,174.59 493.36,174.31 495.41,174.03 497.47,173.75 499.52,173.46 501.58,173.18 503.63,172.90 505.69,172.62 507.74,172.33 509.80,172.05 511.85,171.76 513.91,171.48 515.96,171.19 518.02,170.91 520.08,170.62 522.13,170.34 524.19,170.05 526.24,169.76 528.30,169.48 530.35,169.19 532.41,168.90 534.46,168.61 536.52,168.32 538.57,168.03 540.63,167.74 542.68,167.45 544.74,167.16 546.79,166.86 548.85,166.57 550.90,166.28 552.96,165.98 555.01,165.69 557.07,165.39 559.12,165.10 561.18,164.80 563.23,164.50 565.29,164.20 567.34,163.90 569.40,163.60 571.45,163.30 573.51,163.00 575.56,162.70 577.62,162.40 579.67,162.09 581.73,161.79 583.78,161.48 585.84,161.17 587.89,160.87 589.95,160.56 592.01,160.25 594.06,159.94 596.12,159.63 598.17,159.31 600.23,159.00 602.28,158.69 604.34,158.37 606.39,158.05 608.45,157.74 610.50,157.42 612.56,157.10 614.61,156.77 616.67,156.45 618.72,156.13 620.78,155.80 622.83,155.48 624.89,155.15 626.94,154.82 629.00,154.49 631.05,154.16 633.11,153.82 635.16,153.49 637.22,153.15 639.27,152.82 641.33,152.48 643.38,152.14 645.44,151.79 647.49,151.45 649.55,151.10 651.60,150.76 653.66,150.41 655.71,150.06 657.77,149.70 659.82,149.35 661.88,148.99 663.93,148.64 665.99,148.28 668.05,147.91 670.10,147.55 672.16,147.19 674.21,146.82 676.27,146.45 678.32,146.08 680.38,145.70 682.43,145.32 684.49,144.95 686.54,144.56 688.60,144.18 690.65,143.79 692.71,143.41 694.76,143.02 696.82,142.62 698.87,142.23 700.93,141.83 702.98,141.43 705.04,141.02 707.09,140.61 709.15,140.20 711.20,139.79 713.26,139.37 715.31,138.95 717.37,138.53 719.42,138.11 721.48,137.68 723.53,137.24 725.59,136.81 727.64,136.37 729.70,135.93 731.75,135.48 733.81,135.03 735.86,134.57 737.92,134.11 739.97,133.65 742.03,133.18 744.09,132.71 746.14,132.24 748.20,131.76 750.25,131.27 752.31,130.78 754.36,130.29 756.42,129.79 758.47,129.28 760.53,128.77 762.58,128.26 764.64,127.74 766.69,127.21 768.75,126.68 770.80,126.14 772.86,125.59 774.91,125.04 776.97,124.49 779.02,123.92 781.08,123.35 783.13,122.77 785.19,122.18 787.24,121.59 789.30,120.99 791.35,120.38 793.41,119.76 795.46,119.13 797.52,118.50 799.57,117.85 801.63,117.20 803.68,116.53 805.74,115.86 807.79,115.17 809.85,114.48 811.90,113.77 813.96,113.05 816.02,112.32 818.07,111.57 820.13,110.81 822.18,110.04 824.24,109.25 826.29,108.45 828.35,107.63 830.40,106.80 832.46,105.95 834.51,105.08 836.57,104.19 838.62,103.28 840.68,102.35 842.73,101.40 844.79,100.43 846.84,99.43 848.90,98.41 850.95,97.36 853.01,96.28 855.06,95.17 857.12,94.03 859.17,92.86 861.23,91.65 863.28,90.40 865.34,89.11 867.39,87.78 869.45,86.39 871.50,84.96 873.56,83.48 875.61,81.93 877.67,80.32 879.72,78.64 881.78,76.88 883.83,75.04 885.89,73.10 887.94,71.06 890.00,68.91" />
<circle cx="329.83" cy="196.84" r="4" fill="#DC2626" />
<text x="337.83" y="188.84" text-anchor="start" font-family="ui-sans-serif, system-ui, -apple-system" font-size="12" fill="#111827">at p0</text>
</g>
</svg>
