<?xml version="1.0" encoding="UTF-8"?>
<svg xmlns="http://www.w3.org/2000/svg" width="920" height="420" viewBox="0 0 920 420">
<rect x="0" y="0" width="920" height="420" fill="white" />
<text x="460.0" y="27.5" text-anchor="middle" font-family="ui-sans-serif, system-ui, -apple-system" font-size="16" fill="#111827">Figure 6 — Farther from expiry (larger T) makes the curve steeper and splitting matters more</text>
<line x1="70" y1="355.00" x2="890" y2="355.00" stroke="#E5E7EB" stroke-width="1" />
<line x1="70" y1="295.00" x2="890" y2="295.00" stroke="#E5E7EB" stroke-width="1" />
<line x1="70" y1="235.00" x2="890" y2="235.00" stroke="#E5E7EB" stroke-width="1" />
<line x1="70" y1="175.00" x2="890" y2="175.00" stroke="#E5E7EB" stroke-width="1" />
<line x1="70" y1="115.00" x2="890" y2="115.00" stroke="#E5E7EB" stroke-width="1" />
<line x1="70" y1="55.00" x2="890" y2="55.00" stroke="#E5E7EB" stroke-width="1" />
<line x1="70" y1="355" x2="890" y2="355" stroke="#111827" stroke-width="1.5" />
<line x1="70" y1="55" x2="70" y2="355" stroke="#111827" stroke-width="1.5" />
<line x1="70.00" y1="355" x2="70.00" y2="361" stroke="#111827" stroke-width="1" />
<text x="70.00" y="377" text-anchor="middle" font-family="ui-sans-serif, system-ui, -apple-system" font-size="12" fill="#374151">7.00</text>
<line x1="234.00" y1="355" x2="234.00" y2="361" stroke="#111827" stroke-width="1" />
<text x="234.00" y="377" text-anchor="middle" font-family="ui-sans-serif, system-ui, -apple-system" font-size="12" fill="#374151">152</text>
<line x1="398.00" y1="355" x2="398.00" y2="361" stroke="#111827" stroke-width="1" />
<text x="398.00" y="377" text-anchor="middle" font-family="ui-sans-serif, system-ui, -apple-system" font-size="12" fill="#374151">296</text>
<line x1="562.00" y1="355" x2="562.00" y2="361" stroke="#111827" stroke-width="1" />
<text x="562.00" y="377" text-anchor="middle" font-family="ui-sans-serif, system-ui, -apple-system" font-size="12" fill="#374151">441</text>
<line x1="726.00" y1="355" x2="726.00" y2="361" stroke="#111827" stroke-width="1" />
<text x="726.00" y="377" text-anchor="middle" font-family="ui-sans-serif, system-ui, -apple-system" font-size="12" fill="#374151">585</text>
<line x1="890.00" y1="355" x2="890.00" y2="361" stroke="#111827" stroke-width="1" />
<text x="890.00" y="377" text-anchor="middle" font-family="ui-sans-serif, system-ui, -apple-system" font-size="12" fill="#374151">730</text>
<line x1="64" y1="355.00" x2="70" y2="355.00" stroke="#111827" stroke-width="1" />
<text x="60" y="359.00" text-anchor="end" font-family="ui-sans-serif, system-ui, -apple-system" font-size="12" fill="#374151">0</text>
<line x1="64" y1="295.00" x2="70" y2="295.00" stroke="#111827" stroke-width="1" />
<text x="60" y="299.00" text-anchor="end" font-family="ui-sans-serif, system-ui, -apple-system" font-size="12" fill="#374151">46</text>
<line x1="64" y1="235.00" x2="70" y2="235.00" stroke="#111827" stroke-width="1" />
<text x="60" y="239.00" text-anchor="end" font-family="ui-sans-serif, system-ui, -apple-system" font-size="12" fill="#374151">93</text>
<line x1="64" y1="175.00" x2="70" y2="175.00" stroke="#111827" stroke-width="1" />
<text x="60" y="179.00" text-anchor="end" font-family="ui-sans-serif, system-ui, -apple-system" font-size="12" fill="#374151">139</text>
<line x1="64" y1="115.00" x2="70" y2="115.00" stroke="#111827" stroke-width="1" />
<text x="60" y="119.00" text-anchor="end" font-family="ui-sans-serif, system-ui, -apple-system" font-size="12" fill="#374151">186</text>
<line x1="64" y1="55.00" x2="70" y2="55.00" stroke="#111827" stroke-width="1" />
<text x="60" y="59.00" text-anchor="end" font-family="ui-sans-serif, system-ui, -apple-system" font-size="12" fill="#374151">232</text>
<text x="460.0" y="410" text-anchor="middle" font-family="ui-sans-serif, system-ui, -apple-system" font-size="13" fill="#111827">Time to expiry (days)</text>
<text x="14" y="210.0" text-anchor="middle" font-family="ui-sans-serif, system-ui, -apple-system" font-size="13" fill="#111827" transform="rotate(-90, 14, 210.0)">Round-trip loss (bps of spot notional, fee=0)</text>
<polyline fill="none" stroke="#111827" stroke-width="2.0" stroke-linejoin="round" stroke-linecap="round" points="70.00,351.42 73.43,349.87 76.86,348.34 80.29,346.80 83.72,345.27 87.15,343.74 90.59,342.21 94.02,340.69 97.45,339.17 100.88,337.65 104.31,336.14 107.74,334.63 111.17,333.13 114.60,331.63 118.03,330.13 121.46,328.63 124.90,327.14 128.33,325.65 131.76,324.17 135.19,322.68 138.62,321.21 142.05,319.73 145.48,318.26 148.91,316.79 152.34,315.33 155.77,313.87 159.21,312.41 162.64,310.95 166.07,309.50 169.50,308.05 172.93,306.61 176.36,305.17 179.79,303.73 183.22,302.30 186.65,300.87 190.08,299.44 193.51,298.02 196.95,296.59 200.38,295.18 203.81,293.76 207.24,292.35 210.67,290.95 214.10,289.54 217.53,288.14 220.96,286.75 224.39,285.35 227.82,283.96 231.26,282.58 234.69,281.19 238.12,279.81 241.55,278.44 244.98,277.06 248.41,275.69 251.84,274.33 255.27,272.97 258.70,271.61 262.13,270.25 265.56,268.90 269.00,267.55 272.43,266.20 275.86,264.86 279.29,263.52 282.72,262.19 286.15,260.85 289.58,259.52 293.01,258.20 296.44,256.88 299.87,255.56 303.31,254.24 306.74,252.93 310.17,251.62 313.60,250.32 317.03,249.02 320.46,247.72 323.89,246.42 327.32,245.13 330.75,243.84 334.18,242.56 337.62,241.28 341.05,240.00 344.48,238.72 347.91,237.45 351.34,236.18 354.77,234.92 358.20,233.66 361.63,232.40 365.06,231.14 368.49,229.89 371.92,228.65 375.36,227.40 378.79,226.16 382.22,224.92 385.65,223.69 389.08,222.46 392.51,221.23 395.94,220.00 399.37,218.78 402.80,217.57 406.23,216.35 409.67,215.14 413.10,213.93 416.53,212.73 419.96,211.53 423.39,210.33 426.82,209.13 430.25,207.94 433.68,206.76 437.11,205.57 440.54,204.39 443.97,203.21 447.41,202.04 450.84,200.87 454.27,199.70 457.70,198.53 461.13,197.37 464.56,196.21 467.99,195.06 471.42,193.91 474.85,192.76 478.28,191.61 481.72,190.47 485.15,189.33 488.58,188.20 492.01,187.07 495.44,185.94 498.87,184.81 502.30,183.69 505.73,182.57 509.16,181.46 512.59,180.35 516.03,179.24 519.46,178.13 522.89,177.03 526.32,175.93 529.75,174.84 533.18,173.74 536.61,172.65 540.04,171.57 543.47,170.48 546.90,169.41 550.33,168.33 553.77,167.26 557.20,166.19 560.63,165.12 564.06,164.06 567.49,163.00 570.92,161.94 574.35,160.88 577.78,159.83 581.21,158.79 584.64,157.74 588.08,156.70 591.51,155.66 594.94,154.63 598.37,153.60 601.80,152.57 605.23,151.54 608.66,150.52 612.09,149.50 615.52,148.49 618.95,147.48 622.38,146.47 625.82,145.46 629.25,144.46 632.68,143.46 636.11,142.46 639.54,141.47 642.97,140.48 646.40,139.49 649.83,138.51 653.26,137.53 656.69,136.55 660.13,135.58 663.56,134.60 666.99,133.64 670.42,132.67 673.85,131.71 677.28,130.75 680.71,129.79 684.14,128.84 687.57,127.89 691.00,126.95 694.44,126.00 697.87,125.06 701.30,124.12 704.73,123.19 708.16,122.26 711.59,121.33 715.02,120.41 718.45,119.48 721.88,118.57 725.31,117.65 728.74,116.74 732.18,115.83 735.61,114.92 739.04,114.02 742.47,113.12 745.90,112.22 749.33,111.33 752.76,110.43 756.19,109.55 759.62,108.66 763.05,107.78 766.49,106.90 769.92,106.02 773.35,105.15 776.78,104.28 780.21,103.41 783.64,102.55 787.07,101.69 790.50,100.83 793.93,99.97 797.36,99.12 800.79,98.27 804.23,97.43 807.66,96.58 811.09,95.74 814.52,94.91 817.95,94.07 821.38,93.24 824.81,92.41 828.24,91.58 831.67,90.76 835.10,89.94 838.54,89.13 841.97,88.31 845.40,87.50 848.83,86.69 852.26,85.89 855.69,85.09 859.12,84.29 862.55,83.49 865.98,82.70 869.41,81.91 872.85,81.12 876.28,80.33 879.71,79.55 883.14,78.77 886.57,78.00 890.00,77.22" />
<polyline fill="none" stroke="#2563EB" stroke-width="2.0" stroke-linejoin="round" stroke-linecap="round" points="70.00,354.64 73.43,354.49 76.86,354.33 80.29,354.18 83.72,354.03 87.15,353.87 90.59,353.72 94.02,353.57 97.45,353.42 100.88,353.27 104.31,353.11 107.74,352.96 111.17,352.81 114.60,352.66 118.03,352.51 121.46,352.36 124.90,352.21 128.33,352.07 131.76,351.92 135.19,351.77 138.62,351.62 142.05,351.47 145.48,351.33 148.91,351.18 152.34,351.03 155.77,350.89 159.21,350.74 162.64,350.60 166.07,350.45 169.50,350.31 172.93,350.16 176.36,350.02 179.79,349.87 183.22,349.73 186.65,349.59 190.08,349.44 193.51,349.30 196.95,349.16 200.38,349.02 203.81,348.88 207.24,348.74 210.67,348.59 214.10,348.45 217.53,348.31 220.96,348.17 224.39,348.04 227.82,347.90 231.26,347.76 234.69,347.62 238.12,347.48 241.55,347.34 244.98,347.21 248.41,347.07 251.84,346.93 255.27,346.80 258.70,346.66 262.13,346.53 265.56,346.39 269.00,346.25 272.43,346.12 275.86,345.99 279.29,345.85 282.72,345.72 286.15,345.59 289.58,345.45 293.01,345.32 296.44,345.19 299.87,345.06 303.31,344.92 306.74,344.79 310.17,344.66 313.60,344.53 317.03,344.40 320.46,344.27 323.89,344.14 327.32,344.01 330.75,343.88 334.18,343.76 337.62,343.63 341.05,343.50 344.48,343.37 347.91,343.25 351.34,343.12 354.77,342.99 358.20,342.87 361.63,342.74 365.06,342.61 368.49,342.49 371.92,342.36 375.36,342.24 378.79,342.12 382.22,341.99 385.65,341.87 389.08,341.75 392.51,341.62 395.94,341.50 399.37,341.38 402.80,341.26 406.23,341.14 409.67,341.01 413.10,340.89 416.53,340.77 419.96,340.65 423.39,340.53 426.82,340.41 430.25,340.29 433.68,340.18 437.11,340.06 440.54,339.94 443.97,339.82 447.41,339.70 450.84,339.59 454.27,339.47 457.70,339.35 461.13,339.24 464.56,339.12 467.99,339.01 471.42,338.89 474.85,338.78 478.28,338.66 481.72,338.55 485.15,338.43 488.58,338.32 492.01,338.21 495.44,338.09 498.87,337.98 502.30,337.87 505.73,337.76 509.16,337.65 512.59,337.54 516.03,337.42 519.46,337.31 522.89,337.20 526.32,337.09 529.75,336.98 533.18,336.87 536.61,336.77 540.04,336.66 543.47,336.55 546.90,336.44 550.33,336.33 553.77,336.23 557.20,336.12 560.63,336.01 564.06,335.91 567.49,335.80 570.92,335.69 574.35,335.59 577.78,335.48 581.21,335.38 584.64,335.27 588.08,335.17 591.51,335.07 594.94,334.96 598.37,334.86 601.80,334.76 605.23,334.66 608.66,334.55 612.09,334.45 615.52,334.35 618.95,334.25 622.38,334.15 625.82,334.05 629.25,333.95 632.68,333.85 636.11,333.75 639.54,333.65 642.97,333.55 646.40,333.45 649.83,333.35 653.26,333.25 656.69,333.16 660.13,333.06 663.56,332.96 666.99,332.86 670.42,332.77 673.85,332.67 677.28,332.58 680.71,332.48 684.14,332.39 687.57,332.29 691.00,332.20 694.44,332.10 697.87,332.01 701.30,331.91 704.73,331.82 708.16,331.73 711.59,331.63 715.02,331.54 718.45,331.45 721.88,331.36 725.31,331.27 728.74,331.18 732.18,331.08 735.61,330.99 739.04,330.90 742.47,330.81 745.90,330.72 749.33,330.63 752.76,330.54 756.19,330.46 759.62,330.37 763.05,330.28 766.49,330.19 769.92,330.10 773.35,330.02 776.78,329.93 780.21,329.84 783.64,329.76 787.07,329.67 790.50,329.58 793.93,329.50 797.36,329.41 800.79,329.33 804.23,329.24 807.66,329.16 811.09,329.08 814.52,328.99 817.95,328.91 821.38,328.83 824.81,328.74 828.24,328.66 831.67,328.58 835.10,328.50 838.54,328.41 841.97,328.33 845.40,328.25 848.83,328.17 852.26,328.09 855.69,328.01 859.12,327.93 862.55,327.85 865.98,327.77 869.41,327.69 872.85,327.61 876.28,327.54 879.71,327.46 883.14,327.38 886.57,327.30 890.00,327.22" />
<line x1="750" y1="63.00" x2="770" y2="63.00" stroke="#111827" stroke-width="2.0"  />
<text x="776" y="67.00" text-anchor="start" font-family="ui-sans-serif, system-ui, -apple-system" font-size="12" fill="#111827">single (n=1), x=10%</text>
<line x1="750" y1="81.00" x2="770" y2="81.00" stroke="#2563EB" stroke-width="2.0"  />
<text x="776" y="85.00" text-anchor="start" font-family="ui-sans-serif, system-ui, -apple-system" font-size="12" fill="#111827">split (n=10), x=10%</text>
</svg>
