<?xml version="1.0" encoding="UTF-8"?>
<svg xmlns="http://www.w3.org/2000/svg" width="920" height="420" viewBox="0 0 920 420">
<rect x="0" y="0" width="920" height="420" fill="white" />
<text x="460.0" y="27.5" text-anchor="middle" font-family="ui-sans-serif, system-ui, -apple-system" font-size="16" fill="#111827">Figure 5 — Splitting reduces the non-fee round-trip loss roughly ~1/n</text>
<line x1="70" y1="355.00" x2="890" y2="355.00" stroke="#E5E7EB" stroke-width="1" />
<line x1="70" y1="295.00" x2="890" y2="295.00" stroke="#E5E7EB" stroke-width="1" />
<line x1="70" y1="235.00" x2="890" y2="235.00" stroke="#E5E7EB" stroke-width="1" />
<line x1="70" y1="175.00" x2="890" y2="175.00" stroke="#E5E7EB" stroke-width="1" />
<line x1="70" y1="115.00" x2="890" y2="115.00" stroke="#E5E7EB" stroke-width="1" />
<line x1="70" y1="55.00" x2="890" y2="55.00" stroke="#E5E7EB" stroke-width="1" />
<line x1="70" y1="355" x2="890" y2="355" stroke="#111827" stroke-width="1.5" />
<line x1="70" y1="55" x2="70" y2="355" stroke="#111827" stroke-width="1.5" />
<line x1="70.00" y1="355" x2="70.00" y2="361" stroke="#111827" stroke-width="1" />
<text x="70.00" y="377" text-anchor="middle" font-family="ui-sans-serif, system-ui, -apple-system" font-size="12" fill="#374151">1.00</text>
<line x1="234.00" y1="355" x2="234.00" y2="361" stroke="#111827" stroke-width="1" />
<text x="234.00" y="377" text-anchor="middle" font-family="ui-sans-serif, system-ui, -apple-system" font-size="12" fill="#374151">40.8</text>
<line x1="398.00" y1="355" x2="398.00" y2="361" stroke="#111827" stroke-width="1" />
<text x="398.00" y="377" text-anchor="middle" font-family="ui-sans-serif, system-ui, -apple-system" font-size="12" fill="#374151">80.6</text>
<line x1="562.00" y1="355" x2="562.00" y2="361" stroke="#111827" stroke-width="1" />
<text x="562.00" y="377" text-anchor="middle" font-family="ui-sans-serif, system-ui, -apple-system" font-size="12" fill="#374151">120</text>
<line x1="726.00" y1="355" x2="726.00" y2="361" stroke="#111827" stroke-width="1" />
<text x="726.00" y="377" text-anchor="middle" font-family="ui-sans-serif, system-ui, -apple-system" font-size="12" fill="#374151">160</text>
<line x1="890.00" y1="355" x2="890.00" y2="361" stroke="#111827" stroke-width="1" />
<text x="890.00" y="377" text-anchor="middle" font-family="ui-sans-serif, system-ui, -apple-system" font-size="12" fill="#374151">200</text>
<line x1="64" y1="355.00" x2="70" y2="355.00" stroke="#111827" stroke-width="1" />
<text x="60" y="359.00" text-anchor="end" font-family="ui-sans-serif, system-ui, -apple-system" font-size="12" fill="#374151">0</text>
<line x1="64" y1="295.00" x2="70" y2="295.00" stroke="#111827" stroke-width="1" />
<text x="60" y="299.00" text-anchor="end" font-family="ui-sans-serif, system-ui, -apple-system" font-size="12" fill="#374151">26</text>
<line x1="64" y1="235.00" x2="70" y2="235.00" stroke="#111827" stroke-width="1" />
<text x="60" y="239.00" text-anchor="end" font-family="ui-sans-serif, system-ui, -apple-system" font-size="12" fill="#374151">51</text>
<line x1="64" y1="175.00" x2="70" y2="175.00" stroke="#111827" stroke-width="1" />
<text x="60" y="179.00" text-anchor="end" font-family="ui-sans-serif, system-ui, -apple-system" font-size="12" fill="#374151">77</text>
<line x1="64" y1="115.00" x2="70" y2="115.00" stroke="#111827" stroke-width="1" />
<text x="60" y="119.00" text-anchor="end" font-family="ui-sans-serif, system-ui, -apple-system" font-size="12" fill="#374151">102</text>
<line x1="64" y1="55.00" x2="70" y2="55.00" stroke="#111827" stroke-width="1" />
<text x="60" y="59.00" text-anchor="end" font-family="ui-sans-serif, system-ui, -apple-system" font-size="12" fill="#374151">128</text>
<text x="460.0" y="410" text-anchor="middle" font-family="ui-sans-serif, system-ui, -apple-system" font-size="13" fill="#111827">Number of splits per leg (n)</text>
<text x="14" y="210.0" text-anchor="middle" font-family="ui-sans-serif, system-ui, -apple-system" font-size="13" fill="#111827" transform="rotate(-90, 14, 210.0)">Round-trip loss (bps of spot notional)</text>
<polyline fill="none" stroke="#2563EB" stroke-width="2.0" stroke-linejoin="round" stroke-linecap="round" points="70.00,269.02 74.12,312.01 78.24,326.34 82.36,333.51 86.48,337.80 90.60,340.67 94.72,342.72 98.84,344.25 102.96,345.45 107.09,346.40 111.21,347.18 115.33,347.84 119.45,348.39 123.57,348.86 127.69,349.27 131.81,349.63 135.93,349.94 140.05,350.22 144.17,350.47 148.29,350.70 152.41,350.91 156.53,351.09 160.65,351.26 164.77,351.42 168.89,351.56 173.02,351.69 177.14,351.82 181.26,351.93 185.38,352.04 189.50,352.13 193.62,352.23 197.74,352.31 201.86,352.39 205.98,352.47 210.10,352.54 214.22,352.61 218.34,352.68 222.46,352.74 226.58,352.80 230.70,352.85 234.82,352.90 238.94,352.95 243.07,353.00 247.19,353.05 251.31,353.09 255.43,353.13 259.55,353.17 263.67,353.21 267.79,353.25 271.91,353.28 276.03,353.31 280.15,353.35 284.27,353.38 288.39,353.41 292.51,353.44 296.63,353.46 300.75,353.49 304.87,353.52 308.99,353.54 313.12,353.57 317.24,353.59 321.36,353.61 325.48,353.64 329.60,353.66 333.72,353.68 337.84,353.70 341.96,353.72 346.08,353.74 350.20,353.75 354.32,353.77 358.44,353.79 362.56,353.81 366.68,353.82 370.80,353.84 374.92,353.85 379.05,353.87 383.17,353.88 387.29,353.90 391.41,353.91 395.53,353.93 399.65,353.94 403.77,353.95 407.89,353.96 412.01,353.98 416.13,353.99 420.25,354.00 424.37,354.01 428.49,354.02 432.61,354.03 436.73,354.04 440.85,354.06 444.97,354.07 449.10,354.08 453.22,354.09 457.34,354.09 461.46,354.10 465.58,354.11 469.70,354.12 473.82,354.13 477.94,354.14 482.06,354.15 486.18,354.16 490.30,354.17 494.42,354.17 498.54,354.18 502.66,354.19 506.78,354.20 510.90,354.20 515.03,354.21 519.15,354.22 523.27,354.23 527.39,354.23 531.51,354.24 535.63,354.25 539.75,354.25 543.87,354.26 547.99,354.27 552.11,354.27 556.23,354.28 560.35,354.28 564.47,354.29 568.59,354.30 572.71,354.30 576.83,354.31 580.95,354.31 585.08,354.32 589.20,354.32 593.32,354.33 597.44,354.33 601.56,354.34 605.68,354.34 609.80,354.35 613.92,354.35 618.04,354.36 622.16,354.36 626.28,354.37 630.40,354.37 634.52,354.38 638.64,354.38 642.76,354.39 646.88,354.39 651.01,354.39 655.13,354.40 659.25,354.40 663.37,354.41 667.49,354.41 671.61,354.42 675.73,354.42 679.85,354.42 683.97,354.43 688.09,354.43 692.21,354.43 696.33,354.44 700.45,354.44 704.57,354.45 708.69,354.45 712.81,354.45 716.93,354.46 721.06,354.46 725.18,354.46 729.30,354.47 733.42,354.47 737.54,354.47 741.66,354.48 745.78,354.48 749.90,354.48 754.02,354.49 758.14,354.49 762.26,354.49 766.38,354.49 770.50,354.50 774.62,354.50 778.74,354.50 782.86,354.51 786.98,354.51 791.11,354.51 795.23,354.51 799.35,354.52 803.47,354.52 807.59,354.52 811.71,354.52 815.83,354.53 819.95,354.53 824.07,354.53 828.19,354.54 832.31,354.54 836.43,354.54 840.55,354.54 844.67,354.55 848.79,354.55 852.91,354.55 857.04,354.55 861.16,354.55 865.28,354.56 869.40,354.56 873.52,354.56 877.64,354.56 881.76,354.57 885.88,354.57 890.00,354.57" />
<polyline fill="none" stroke="#DC2626" stroke-width="2.0" stroke-linejoin="round" stroke-linecap="round" points="70.00,77.22 74.12,216.11 78.24,262.41 82.36,285.56 86.48,299.44 90.60,308.70 94.72,315.32 98.84,320.28 102.96,324.13 107.09,327.22 111.21,329.75 115.33,331.85 119.45,333.63 123.57,335.16 127.69,336.48 131.81,337.64 135.93,338.66 140.05,339.57 144.17,340.38 148.29,341.11 152.41,341.77 156.53,342.37 160.65,342.92 164.77,343.43 168.89,343.89 173.02,344.32 177.14,344.71 181.26,345.08 185.38,345.42 189.50,345.74 193.62,346.04 197.74,346.32 201.86,346.58 205.98,346.83 210.10,347.06 214.22,347.28 218.34,347.49 222.46,347.69 226.58,347.88 230.70,348.06 234.82,348.22 238.94,348.39 243.07,348.54 247.19,348.69 251.31,348.83 255.43,348.96 259.55,349.09 263.67,349.21 267.79,349.33 271.91,349.44 276.03,349.55 280.15,349.66 284.27,349.76 288.39,349.86 292.51,349.95 296.63,350.04 300.75,350.13 304.87,350.21 308.99,350.29 313.12,350.37 317.24,350.45 321.36,350.52 325.48,350.59 329.60,350.66 333.72,350.73 337.84,350.79 341.96,350.85 346.08,350.91 350.20,350.97 354.32,351.03 358.44,351.09 362.56,351.14 366.68,351.19 370.80,351.25 374.92,351.30 379.05,351.34 383.17,351.39 387.29,351.44 391.41,351.48 395.53,351.53 399.65,351.57 403.77,351.61 407.89,351.65 412.01,351.69 416.13,351.73 420.25,351.77 424.37,351.81 428.49,351.84 432.61,351.88 436.73,351.91 440.85,351.95 444.97,351.98 449.10,352.01 453.22,352.04 457.34,352.08 461.46,352.11 465.58,352.14 469.70,352.17 473.82,352.19 477.94,352.22 482.06,352.25 486.18,352.28 490.30,352.30 494.42,352.33 498.54,352.35 502.66,352.38 506.78,352.40 510.90,352.43 515.03,352.45 519.15,352.47 523.27,352.50 527.39,352.52 531.51,352.54 535.63,352.56 539.75,352.58 543.87,352.61 547.99,352.63 552.11,352.65 556.23,352.67 560.35,352.69 564.47,352.70 568.59,352.72 572.71,352.74 576.83,352.76 580.95,352.78 585.08,352.80 589.20,352.81 593.32,352.83 597.44,352.85 601.56,352.86 605.68,352.88 609.80,352.90 613.92,352.91 618.04,352.93 622.16,352.94 626.28,352.96 630.40,352.97 634.52,352.99 638.64,353.00 642.76,353.02 646.88,353.03 651.01,353.04 655.13,353.06 659.25,353.07 663.37,353.08 667.49,353.10 671.61,353.11 675.73,353.12 679.85,353.14 683.97,353.15 688.09,353.16 692.21,353.17 696.33,353.18 700.45,353.20 704.57,353.21 708.69,353.22 712.81,353.23 716.93,353.24 721.06,353.25 725.18,353.26 729.30,353.27 733.42,353.29 737.54,353.30 741.66,353.31 745.78,353.32 749.90,353.33 754.02,353.34 758.14,353.35 762.26,353.36 766.38,353.37 770.50,353.38 774.62,353.38 778.74,353.39 782.86,353.40 786.98,353.41 791.11,353.42 795.23,353.43 799.35,353.44 803.47,353.45 807.59,353.46 811.71,353.47 815.83,353.47 819.95,353.48 824.07,353.49 828.19,353.50 832.31,353.51 836.43,353.51 840.55,353.52 844.67,353.53 848.79,353.54 852.91,353.55 857.04,353.55 861.16,353.56 865.28,353.57 869.40,353.58 873.52,353.58 877.64,353.59 881.76,353.60 885.88,353.60 890.00,353.61" />
<line x1="750" y1="63.00" x2="770" y2="63.00" stroke="#2563EB" stroke-width="2.0"  />
<text x="776" y="67.00" text-anchor="start" font-family="ui-sans-serif, system-ui, -apple-system" font-size="12" fill="#111827">x=10%</text>
<line x1="750" y1="81.00" x2="770" y2="81.00" stroke="#DC2626" stroke-width="2.0"  />
<text x="776" y="85.00" text-anchor="start" font-family="ui-sans-serif, system-ui, -apple-system" font-size="12" fill="#111827">x=30%</text>
</svg>
